<svg width="76" height="30" viewBox="0 0 76 30" fill="none" xmlns="http://www.w3.org/2000/svg">
<path d="M33.9019 19V11.126H39.2139V12.055H34.9439V14.494H38.6389V15.423H34.9439V19H33.9019ZM40.6699 12.238V11.126H41.6369V12.238H40.6699ZM40.6699 19V13.296H41.6369V19H40.6699ZM42.9409 17.297L43.8969 17.147C43.9509 17.531 44.0999 17.825 44.3459 18.028C44.5909 18.233 44.9339 18.335 45.3739 18.335C45.8179 18.335 46.1469 18.244 46.3619 18.064C46.5769 17.884 46.6839 17.671 46.6839 17.427C46.6839 17.209 46.5889 17.037 46.3989 16.911C46.2669 16.825 45.9369 16.717 45.4109 16.584C44.7019 16.405 44.2099 16.25 43.9369 16.119C43.6629 15.988 43.4549 15.807 43.3139 15.577C43.1719 15.346 43.1019 15.091 43.1019 14.811C43.1019 14.557 43.1599 14.322 43.2759 14.105C43.3929 13.888 43.5509 13.709 43.7519 13.565C43.9019 13.454 44.1069 13.36 44.3669 13.283C44.6259 13.206 44.9049 13.168 45.2019 13.168C45.6499 13.168 46.0429 13.232 46.3809 13.361C46.7199 13.49 46.9689 13.665 47.1309 13.884C47.2919 14.105 47.4029 14.399 47.4639 14.768L46.5189 14.897C46.4759 14.603 46.3519 14.375 46.1449 14.209C45.9389 14.044 45.6479 13.962 45.2719 13.962C44.8279 13.962 44.5109 14.035 44.3209 14.182C44.1309 14.329 44.0359 14.501 44.0359 14.698C44.0359 14.824 44.0759 14.936 44.1539 15.037C44.2329 15.141 44.3559 15.226 44.5249 15.295C44.6219 15.331 44.9059 15.413 45.3789 15.542C46.0629 15.725 46.5399 15.874 46.8099 15.99C47.0809 16.106 47.2929 16.276 47.4469 16.498C47.6009 16.72 47.6779 16.996 47.6779 17.325C47.6779 17.647 47.5839 17.951 47.3959 18.235C47.2079 18.52 46.9369 18.74 46.5819 18.896C46.2279 19.051 45.8269 19.129 45.3789 19.129C44.6379 19.129 44.0729 18.975 43.6839 18.667C43.2969 18.359 43.0489 17.902 42.9409 17.297ZM49.0479 19V11.126H50.0149V13.951C50.4659 13.429 51.0359 13.167 51.7229 13.167C52.1449 13.167 52.5129 13.25 52.8239 13.417C53.1359 13.583 53.3579 13.813 53.4929 14.107C53.6269 14.4 53.6939 14.826 53.6939 15.384V19H52.7269V15.385C52.7269 14.903 52.6229 14.55 52.4129 14.33C52.2039 14.109 51.9079 14 51.5239 14C51.2369 14 50.9679 14.074 50.7149 14.223C50.4629 14.371 50.2829 14.573 50.1749 14.827C50.0679 15.082 50.0139 15.432 50.0139 15.88V19H49.0479ZM55.3909 19V11.126H56.3579V15.616L58.6459 13.296H59.8969L57.7159 15.412L60.1179 19H58.9259L57.0409 16.084L56.3589 16.738V19H55.3909ZM64.8279 18.297C64.4699 18.601 64.1249 18.816 63.7939 18.942C63.4629 19.067 63.1069 19.13 62.7279 19.13C62.1019 19.13 61.6199 18.977 61.2829 18.671C60.9469 18.364 60.7779 17.974 60.7779 17.497C60.7779 17.218 60.8409 16.963 60.9679 16.731C61.0949 16.501 61.2619 16.315 61.4679 16.175C61.6739 16.035 61.9059 15.93 62.1629 15.858C62.3529 15.808 62.6389 15.76 63.0219 15.713C63.8029 15.62 64.3769 15.509 64.7459 15.38C64.7489 15.247 64.7509 15.163 64.7509 15.127C64.7509 14.733 64.6599 14.456 64.4769 14.295C64.2299 14.076 63.8629 13.967 63.3759 13.967C62.9209 13.967 62.5849 14.047 62.3689 14.206C62.1519 14.365 61.9919 14.647 61.8879 15.053L60.9429 14.924C61.0289 14.519 61.1709 14.193 61.3669 13.944C61.5629 13.695 61.8479 13.504 62.2209 13.369C62.5939 13.235 63.0249 13.168 63.5149 13.168C64.0019 13.168 64.3979 13.226 64.7019 13.34C65.0059 13.454 65.2299 13.599 65.3729 13.773C65.5159 13.947 65.6169 14.166 65.6739 14.431C65.7059 14.595 65.7219 14.892 65.7219 15.322V16.611C65.7219 17.51 65.7429 18.079 65.7839 18.317C65.8249 18.555 65.9069 18.783 66.0279 19.002H65.0179C64.9209 18.8 64.8569 18.564 64.8279 18.297ZM64.7479 16.137C64.3969 16.281 63.8709 16.403 63.1689 16.502C62.7719 16.56 62.4899 16.624 62.3259 16.695C62.1609 16.767 62.0339 16.872 61.9449 17.009C61.8559 17.146 61.8109 17.3 61.8109 17.468C61.8109 17.726 61.9089 17.941 62.1039 18.113C62.2989 18.285 62.5839 18.371 62.9599 18.371C63.3329 18.371 63.6639 18.29 63.9539 18.127C64.2439 17.964 64.4569 17.741 64.5929 17.459C64.6969 17.24 64.7489 16.918 64.7489 16.492L64.7479 16.137Z" fill="#595959"/>
<g clip-path="url(#clip0_627_2319)">
<path d="M19 6C23.9706 6 28 10.0294 28 15C28 19.9706 23.9706 24 19 24C14.0294 24 10 19.9706 10 15C10 10.0294 14.0294 6 19 6Z" fill="#EF4D51"/>
<path d="M21.6232 10.0571C22.4242 10.0571 22.9672 10.5431 22.9672 11.5571C22.9672 12.5731 22.4092 12.9581 21.6232 12.9581H19.2932V14.2541H20.8372C21.6372 14.2541 22.2802 14.4971 22.2802 15.5121C22.2802 16.5271 21.6222 16.7841 20.8372 16.7841H19.2932V18.5571C19.2932 19.5441 18.8782 19.9431 17.8062 19.9431H17.5212C16.4052 19.9431 16.0342 19.5431 16.0342 18.5571V11.4721C16.0342 10.4581 16.4492 10.0581 17.5212 10.0581L21.6232 10.0571Z" fill="white"/>
</g>
<defs>
<clipPath id="clip0_627_2319">
<rect width="20" height="20" fill="white" transform="matrix(1 0 0 -1 9 25)"/>
</clipPath>
</defs>
</svg>
