<svg width="145" height="42" viewBox="0 0 145 42" fill="none" xmlns="http://www.w3.org/2000/svg">
<g clip-path="url(#clip0_6_138)">
<path d="M18.1291 -0.00477945C18.1987 -0.00477945 18.2682 -0.00510758 18.3375 -0.00510758C18.5248 -0.0054357 18.7122 -0.0054357 18.8995 -0.0054357C19.017 -0.0054357 19.1345 -0.0054357 19.2523 -0.00576383C19.6634 -0.00609195 20.0749 -0.00609195 20.4863 -0.00609195C20.8676 -0.00609195 21.2486 -0.00642008 21.6299 -0.00707633C21.959 -0.00740445 22.2881 -0.00740445 22.6172 -0.00740445C22.8128 -0.00740445 23.0086 -0.00773258 23.2042 -0.0080607C24.71 -0.0103576 24.71 -0.0103576 25.3889 0.0592049C25.5565 0.0739706 25.7245 0.0729862 25.8932 0.0697049C25.9253 0.0693768 25.9575 0.0690487 25.9906 0.0687206C26.0661 0.0680643 26.1416 0.0670799 26.2171 0.0657674C26.2171 0.0765956 26.2171 0.0874237 26.2171 0.0985799C26.2466 0.0995643 26.2466 0.0995643 26.2768 0.100877C26.3657 0.104814 26.4543 0.108752 26.5432 0.112689C26.5898 0.114658 26.5898 0.114658 26.6374 0.116627C26.6666 0.117939 26.6961 0.11958 26.7266 0.120892C26.7676 0.122533 26.7676 0.122533 26.8093 0.124502C26.8733 0.131392 26.8733 0.131392 26.9061 0.164205C26.9891 0.166502 27.0715 0.167158 27.1545 0.166174C27.1778 0.165846 27.2011 0.165846 27.2251 0.165517C27.2828 0.165189 27.3406 0.164533 27.3983 0.164205C27.3983 0.175033 27.3983 0.185861 27.3983 0.197017C27.4469 0.199971 27.4469 0.199971 27.4964 0.202924C27.5387 0.205549 27.5807 0.208502 27.6241 0.211127C27.6657 0.213752 27.7077 0.216705 27.7507 0.21933C27.8577 0.22983 27.8577 0.22983 27.9233 0.262642C27.9614 0.262642 27.9991 0.262642 28.0381 0.262642C28.153 0.262642 28.153 0.262642 28.2186 0.295455C28.2787 0.301361 28.339 0.305955 28.3991 0.309564C28.5569 0.321377 28.7062 0.344674 28.8608 0.378471C28.9434 0.394221 29.0248 0.40308 29.1088 0.410299C29.2325 0.420799 29.3457 0.443767 29.4652 0.47658C29.562 0.499549 29.6594 0.50808 29.7582 0.516939C29.8651 0.529408 29.9636 0.559596 30.0666 0.590767C30.1854 0.625549 30.1854 0.625549 30.3022 0.639986C30.4216 0.657049 30.5312 0.687564 30.6467 0.722017C30.7015 0.732846 30.7563 0.743674 30.8108 0.75483C31.1865 0.839814 31.5612 0.926439 31.9264 1.05014C32.0222 1.0823 32.1181 1.11413 32.2135 1.14628C32.2503 1.15875 32.2503 1.15875 32.288 1.17155C32.4157 1.2142 32.5436 1.25456 32.6732 1.29164C32.8803 1.35333 33.0785 1.43536 33.278 1.51772C33.3173 1.5338 33.3567 1.54988 33.3974 1.56661C33.6766 1.68211 33.9533 1.80024 34.2233 1.93608C34.2525 1.95052 34.2817 1.96528 34.3116 1.98005C34.4116 2.03058 34.5114 2.08177 34.6111 2.13296C34.6581 2.15691 34.6581 2.15691 34.706 2.18119C34.8914 2.27766 35.062 2.38331 35.2303 2.50735C35.3356 2.57953 35.4475 2.63203 35.5627 2.6865C35.6513 2.73211 35.7228 2.78986 35.7983 2.85483C35.836 2.87714 35.836 2.87714 35.8744 2.89978C35.9978 2.9746 36.11 3.06253 36.2249 3.15014C36.2652 3.18 36.3056 3.21019 36.3459 3.24038C36.4673 3.33127 36.5881 3.42314 36.7088 3.51502C36.7272 3.5288 36.7453 3.54258 36.7643 3.55669C36.8654 3.63413 36.9559 3.71583 37.0452 3.80639C37.0777 3.82805 37.1101 3.84971 37.1436 3.87202C37.1436 3.89367 37.1436 3.91533 37.1436 3.93764C37.1617 3.94486 37.18 3.95241 37.1984 3.95996C37.2975 4.01574 37.3671 4.08661 37.4471 4.16733C37.4911 4.21097 37.4911 4.21097 37.5361 4.25527C37.603 4.33139 37.603 4.33139 37.603 4.39702C37.6302 4.40817 37.6302 4.40817 37.6578 4.41933C37.7569 4.47511 37.8264 4.54599 37.9065 4.62671C37.9505 4.67035 37.9505 4.67035 37.9954 4.71464C38.0624 4.79077 38.0624 4.79077 38.0624 4.85639C38.0948 4.86722 38.1273 4.87805 38.1608 4.88921C38.192 4.93547 38.2228 4.98239 38.2523 5.02964C38.2947 5.08969 38.3409 5.13464 38.3948 5.18452C38.5582 5.34267 38.6812 5.53266 38.8105 5.71903C38.8653 5.7968 38.9224 5.87292 38.9791 5.94938C39.3325 6.43467 39.6351 6.95147 39.9117 7.48336C39.9789 7.61199 40.0472 7.7393 40.1191 7.8653C40.1807 7.97555 40.224 8.08186 40.2608 8.20327C40.2903 8.2725 40.3205 8.34141 40.351 8.41031C40.437 8.60653 40.5105 8.80538 40.5804 9.0075C40.6454 9.19552 40.7143 9.38156 40.7858 9.56696C40.837 9.70116 40.879 9.83635 40.917 9.97514C40.9272 10.0086 40.9374 10.0424 40.9476 10.0772C41.0191 10.3184 41.0775 10.5599 41.1303 10.8056C41.1638 10.9595 41.2025 11.1101 41.2475 11.2607C41.339 11.5715 41.4046 11.8868 41.4342 12.2097C41.4417 12.2809 41.4417 12.2809 41.4749 12.3826C41.5113 12.5138 41.5211 12.6369 41.5313 12.7721C41.5398 12.8538 41.5536 12.9286 41.5733 13.008C41.6107 13.1609 41.6212 13.3128 41.631 13.4693C41.634 13.5514 41.634 13.5514 41.6717 13.6173C41.6786 13.6787 41.6839 13.7404 41.6881 13.8017C41.6911 13.8385 41.6937 13.8752 41.6963 13.913C41.7019 13.9907 41.7075 14.0685 41.7128 14.1463C41.7157 14.1827 41.7183 14.2194 41.721 14.2572C41.7233 14.291 41.7259 14.3248 41.7282 14.3595C41.7292 14.436 41.7292 14.436 41.7702 14.4705C41.7774 14.5522 41.7826 14.6332 41.7866 14.7152C41.7879 14.7398 41.7892 14.7645 41.7908 14.7897C41.7951 14.8685 41.799 14.9472 41.803 15.026C41.8082 15.1297 41.8138 15.233 41.8194 15.3367C41.8207 15.3607 41.8217 15.3846 41.823 15.4092C41.8283 15.5346 41.8283 15.5346 41.8686 15.6517C41.8732 15.7035 41.8758 15.7557 41.8775 15.8079C41.8785 15.8404 41.8798 15.8729 41.8808 15.9067C41.8817 15.9421 41.8827 15.9775 41.884 16.014C41.8867 16.0891 41.889 16.1646 41.8916 16.2397C41.8955 16.3582 41.8995 16.4769 41.9031 16.5954C41.9067 16.7099 41.9106 16.8244 41.9149 16.9389C41.9159 16.9734 41.9168 17.0078 41.9178 17.0436C41.9241 17.2241 41.9395 17.399 41.9674 17.5775C42.0104 17.8793 42.009 18.1793 42.0084 18.4834C42.0084 18.5454 42.0087 18.6078 42.0087 18.6698C42.009 18.8368 42.009 19.0042 42.0087 19.1712C42.0087 19.347 42.0087 19.5229 42.0087 19.6985C42.009 19.9935 42.0087 20.2884 42.0084 20.5834C42.0081 20.9234 42.0084 21.2636 42.0087 21.6036C42.009 21.8969 42.009 22.1899 42.0087 22.4829C42.0087 22.6575 42.0087 22.8321 42.009 23.0066C42.009 23.1707 42.009 23.3351 42.0087 23.4991C42.0084 23.5589 42.0084 23.6189 42.0087 23.679C42.0094 23.9743 42.0038 24.2584 41.9497 24.5505C41.9211 24.7221 41.9195 24.8953 41.9149 25.0692C41.9129 25.127 41.9129 25.127 41.9109 25.186C41.9067 25.3074 41.9031 25.4292 41.8995 25.5506C41.8955 25.6736 41.8919 25.7963 41.8876 25.9191C41.8853 25.9952 41.883 26.0713 41.8808 26.1474C41.8798 26.1816 41.8785 26.2157 41.8775 26.2508C41.8762 26.2958 41.8762 26.2958 41.8748 26.3417C41.8686 26.4142 41.8686 26.4142 41.8358 26.4798C41.8289 26.5602 41.8237 26.64 41.8194 26.7207C41.8181 26.7443 41.8168 26.7683 41.8155 26.7929C41.8112 26.869 41.8073 26.9451 41.803 27.0212C41.7977 27.1213 41.7922 27.2214 41.7866 27.3215C41.7856 27.3448 41.7843 27.3677 41.7833 27.3917C41.7741 27.5551 41.7741 27.5551 41.7374 27.6283C41.7305 27.6867 41.7252 27.7457 41.721 27.8045C41.717 27.857 41.717 27.857 41.7128 27.9105C41.7101 27.9472 41.7075 27.984 41.7045 28.022C41.6993 28.0942 41.6937 28.1667 41.6881 28.2392C41.6858 28.2714 41.6836 28.3036 41.6809 28.337C41.6717 28.4158 41.6717 28.4158 41.6389 28.4814C41.6324 28.5303 41.6271 28.5795 41.6225 28.6291C41.6199 28.6579 41.6173 28.6871 41.6143 28.717C41.6117 28.7475 41.6091 28.778 41.6061 28.8095C41.6009 28.8696 41.5953 28.9296 41.5897 28.99C41.5874 29.0166 41.5851 29.0431 41.5825 29.0707C41.5733 29.1376 41.5733 29.1376 41.5405 29.2033C41.5283 29.2906 41.5175 29.3778 41.5077 29.4658C41.4795 29.7191 41.4795 29.7191 41.442 29.7939C41.4315 29.8648 41.4224 29.936 41.4135 30.0072C41.3899 30.1785 41.3554 30.335 41.3019 30.499C41.2658 30.6234 41.2481 30.7501 41.2298 30.878C41.2097 30.9899 41.1789 31.0956 41.1467 31.2048C41.1241 31.2921 41.1028 31.3797 41.0811 31.4673C41.0119 31.7502 40.9292 32.0274 40.8373 32.3041C40.8275 32.3339 40.8176 32.3638 40.8075 32.3946C40.7645 32.5236 40.7208 32.6512 40.6664 32.7759C40.6306 32.8579 40.6034 32.9334 40.5807 33.0197C40.5328 33.1851 40.4728 33.3452 40.4108 33.5056C40.4012 33.5303 40.3917 33.5549 40.3819 33.5805C40.3264 33.7222 40.2647 33.8587 40.1952 33.9942C40.162 34.0598 40.1309 34.1261 40.1003 34.1931C39.9707 34.4756 39.8329 34.7456 39.6702 35.0111C39.62 35.0941 39.5704 35.1774 39.5222 35.2621C39.3775 35.5171 39.2164 35.7563 39.0467 35.9955C39.0031 36.0575 38.9591 36.1198 38.9155 36.1818C38.8974 36.2078 38.8791 36.2337 38.8604 36.2603C38.8161 36.3223 38.8161 36.3223 38.7842 36.3892C38.7626 36.3892 38.7409 36.3892 38.7186 36.3892C38.7055 36.4174 38.7055 36.4174 38.692 36.4463C38.6517 36.5228 38.6054 36.5871 38.5526 36.6556C38.4814 36.7478 38.4814 36.7478 38.4233 36.8486C38.4016 36.8486 38.38 36.8486 38.3577 36.8486C38.3468 36.8811 38.336 36.9136 38.3249 36.947C38.3032 36.947 38.2815 36.947 38.2592 36.947C38.2484 36.9795 38.2376 37.012 38.2264 37.0455C38.2048 37.0455 38.1831 37.0455 38.1608 37.0455C38.1542 37.0678 38.1477 37.0904 38.1408 37.1137C38.0798 37.242 37.9928 37.326 37.8924 37.4251C37.8724 37.4454 37.8524 37.4655 37.832 37.4861C37.7897 37.5285 37.7474 37.5705 37.705 37.6125C37.6401 37.6768 37.5758 37.7417 37.5114 37.8067C37.4704 37.8477 37.4291 37.8887 37.3881 37.9298C37.3687 37.9491 37.3497 37.9685 37.3297 37.9885C37.1912 38.125 37.1912 38.125 37.1069 38.1437C37.0865 38.1493 37.0662 38.1552 37.0452 38.1611C37.0343 38.1936 37.0235 38.2261 37.0124 38.2595C36.9907 38.2595 36.969 38.2595 36.9467 38.2595C36.9359 38.292 36.9251 38.3245 36.9139 38.358C36.8923 38.358 36.8706 38.358 36.8483 38.358C36.8483 38.3796 36.8483 38.4013 36.8483 38.4236C36.802 38.4554 36.7558 38.4869 36.7082 38.5168C36.6498 38.5558 36.5979 38.5988 36.5448 38.6451C36.4545 38.7189 36.4545 38.7189 36.3889 38.7189C36.3889 38.7406 36.3889 38.7622 36.3889 38.7845C36.3243 38.8305 36.2593 38.8731 36.192 38.9158C36.1245 38.9627 36.0569 39.0099 35.9893 39.0572C35.7976 39.1904 35.6024 39.3171 35.4045 39.4408C35.3714 39.4618 35.3714 39.4618 35.3376 39.4831C35.273 39.5241 35.2077 39.5645 35.142 39.6048C35.1145 39.6219 35.0866 39.639 35.0581 39.6567C34.7998 39.8119 34.5327 39.9399 34.2594 40.0652C34.1954 40.0947 34.1321 40.1249 34.0684 40.1554C33.8355 40.267 33.5999 40.3694 33.36 40.4662C33.3334 40.4767 33.3068 40.4875 33.2793 40.4986C33.1182 40.5626 32.9567 40.6168 32.7901 40.664C32.71 40.6886 32.6335 40.7188 32.5561 40.751C32.2093 40.8937 31.8411 40.9895 31.4776 41.0791C31.431 41.0906 31.3844 41.1024 31.3378 41.1139C31.3151 41.1195 31.2925 41.125 31.2692 41.1309C31.2124 41.1451 31.1557 41.1595 31.0992 41.1739C30.8859 41.2281 30.6717 41.276 30.4561 41.3209C30.3734 41.339 30.2917 41.3587 30.21 41.3806C30.0952 41.4079 29.9859 41.4217 29.8688 41.4328C29.7926 41.4423 29.7204 41.4574 29.646 41.4751C29.5236 41.5037 29.4038 41.5191 29.2788 41.5313C29.1994 41.5411 29.1233 41.5565 29.0452 41.5736C28.8847 41.6074 28.7256 41.6205 28.5622 41.631C28.4811 41.6343 28.4811 41.6343 28.4155 41.672C28.3571 41.6786 28.298 41.6838 28.2393 41.6884C28.1868 41.6924 28.1868 41.6924 28.133 41.6966C28.0588 41.7019 27.9847 41.7075 27.9105 41.713C27.858 41.717 27.858 41.717 27.8045 41.7212C27.7724 41.7235 27.7399 41.7258 27.7067 41.7281C27.6277 41.7331 27.6277 41.7331 27.5624 41.7705C27.482 41.7773 27.4022 41.7826 27.3215 41.7869C27.2976 41.7882 27.2739 41.7895 27.2493 41.7908C27.1476 41.7964 27.0456 41.802 26.9435 41.8072C26.8694 41.8111 26.7949 41.8154 26.7207 41.8197C26.6974 41.8207 26.6745 41.822 26.6505 41.823C26.5281 41.8285 26.5281 41.8285 26.4139 41.8689C26.3558 41.8735 26.2971 41.8761 26.2387 41.8781C26.2039 41.8791 26.1691 41.8804 26.1331 41.8817C26.0966 41.8827 26.0599 41.884 26.0225 41.8853C25.9503 41.8873 25.8781 41.8899 25.8062 41.8922C25.7741 41.8932 25.7419 41.8942 25.7088 41.8955C25.6225 41.8984 25.6225 41.8984 25.528 41.9345C25.4515 41.9391 25.3748 41.9417 25.298 41.9437C25.2753 41.944 25.253 41.9447 25.2297 41.9453C25.1575 41.9473 25.0853 41.949 25.0135 41.9509C24.942 41.9526 24.8701 41.9542 24.7986 41.9562C24.7333 41.9578 24.668 41.9595 24.6027 41.9611C24.4783 41.9654 24.4783 41.9654 24.3563 41.9837C24.2175 42.0015 24.0813 42.0047 23.9415 42.0041C23.9153 42.0041 23.889 42.0044 23.8618 42.0044C23.7745 42.0044 23.6869 42.0044 23.5996 42.0041C23.5366 42.0044 23.4736 42.0044 23.4106 42.0044C23.24 42.0044 23.0697 42.0044 22.8991 42.0044C22.7202 42.0044 22.5414 42.0044 22.3629 42.0044C22.0627 42.0044 21.7624 42.0044 21.4625 42.0044C21.1157 42.0041 20.7692 42.0041 20.4224 42.0044C20.1244 42.0044 19.8265 42.0044 19.5286 42.0044C19.3507 42.0044 19.1729 42.0044 18.995 42.0044C18.828 42.0044 18.6607 42.0044 18.4936 42.0044C18.4323 42.0044 18.3709 42.0044 18.3096 42.0044C18.2259 42.0044 18.1422 42.0044 18.0582 42.0041C18.0221 42.0044 18.0221 42.0044 17.9854 42.0044C17.8282 42.0038 17.6776 41.9883 17.5217 41.9673C17.4381 41.9631 17.3541 41.9598 17.2701 41.9578C17.2235 41.9568 17.1769 41.9555 17.1303 41.9542C17.0581 41.9526 16.9856 41.9506 16.9134 41.949C16.8428 41.9473 16.7723 41.9454 16.7018 41.9437C16.6391 41.9421 16.6391 41.9421 16.5751 41.9404C16.4717 41.9345 16.4717 41.9345 16.3733 41.9017C16.3136 41.8971 16.2539 41.8942 16.1938 41.8922C16.1413 41.8906 16.1413 41.8906 16.0882 41.8886C16.0143 41.8863 15.9405 41.884 15.8667 41.8817C15.8145 41.8797 15.8145 41.8797 15.761 41.8781C15.7131 41.8764 15.7131 41.8764 15.6642 41.8748C15.5858 41.8689 15.5858 41.8689 15.5202 41.8361C15.4398 41.8289 15.3601 41.8236 15.2793 41.8197C15.2554 41.818 15.2318 41.8167 15.2071 41.8154C15.131 41.8111 15.0549 41.8072 14.9788 41.8033C14.8787 41.7977 14.7786 41.7924 14.6785 41.7869C14.6438 41.7849 14.6438 41.7849 14.6083 41.7833C14.4449 41.7741 14.4449 41.7741 14.3717 41.7376C14.3133 41.7308 14.2543 41.7255 14.1955 41.7212C14.1604 41.7183 14.1253 41.7157 14.0892 41.713C14.0525 41.7101 14.0161 41.7075 13.978 41.7048C13.9055 41.6993 13.8333 41.694 13.7608 41.6884C13.7286 41.6858 13.6961 41.6835 13.663 41.6812C13.5842 41.672 13.5842 41.672 13.5186 41.6392C13.4697 41.6323 13.4205 41.6271 13.371 41.6228C13.3273 41.6185 13.3273 41.6185 13.283 41.6146C13.2525 41.6116 13.222 41.609 13.1905 41.6064C13.1304 41.6008 13.0704 41.5956 13.01 41.59C12.9834 41.5874 12.9565 41.5851 12.929 41.5828C12.8624 41.5736 12.8624 41.5736 12.7967 41.5408C12.7095 41.5286 12.6222 41.5175 12.5342 41.508C12.2806 41.4794 12.2806 41.4794 12.2061 41.4423C12.1352 41.4318 12.064 41.4223 11.9928 41.4135C11.8216 41.3902 11.6647 41.3557 11.501 41.3019C11.3763 41.2658 11.25 41.2481 11.122 41.2297C11.0101 41.2097 10.9041 41.1788 10.7952 41.147C10.7079 41.1241 10.6203 41.1027 10.5327 41.0814C10.2495 41.0118 9.97257 40.9295 9.69596 40.8373C9.6661 40.8274 9.63624 40.8176 9.6054 40.8074C9.47612 40.7644 9.3488 40.7208 9.22411 40.6663C9.14208 40.6306 9.06629 40.6036 8.98032 40.581C8.81494 40.5328 8.65482 40.4727 8.49437 40.4107C8.46976 40.4012 8.44482 40.3917 8.41955 40.3818C8.27747 40.3264 8.1413 40.2647 8.00579 40.1955C7.93983 40.1623 7.87355 40.1311 7.80662 40.1003C7.52443 39.9707 7.25438 39.8329 6.98893 39.6705C6.90591 39.6199 6.82224 39.5704 6.73791 39.5225C6.48296 39.3774 6.24343 39.2163 6.00455 39.047C5.94254 39.0031 5.88019 38.9594 5.81818 38.9158C5.77913 38.8882 5.77913 38.8882 5.73976 38.8603C5.67774 38.816 5.67774 38.816 5.6108 38.7845C5.6108 38.7629 5.6108 38.7412 5.6108 38.7189C5.5921 38.71 5.57307 38.7012 5.55371 38.6923C5.47726 38.6516 5.41261 38.6057 5.34436 38.5525C5.25216 38.4813 5.25216 38.4813 5.15143 38.4236C5.15143 38.4019 5.15143 38.3803 5.15143 38.358C5.11894 38.3471 5.08646 38.3363 5.05299 38.3251C5.05299 38.3035 5.05299 38.2818 5.05299 38.2595C5.02051 38.2487 4.98802 38.2379 4.95455 38.2267C4.95455 38.2051 4.95455 38.1834 4.95455 38.1611C4.93224 38.1545 4.9096 38.148 4.88663 38.1414C4.75505 38.0784 4.66843 37.9872 4.56638 37.8841C4.53521 37.853 4.53521 37.853 4.50305 37.8211C4.45908 37.7772 4.41544 37.7332 4.3718 37.6892C4.30454 37.6216 4.23694 37.5544 4.16935 37.4874C4.12669 37.4448 4.08404 37.4021 4.04138 37.3591C4.02104 37.3391 4.00069 37.3191 3.98002 37.2984C3.83893 37.1551 3.83893 37.1551 3.83893 37.0455C3.80644 37.0346 3.77396 37.0238 3.74049 37.0126C3.74049 36.991 3.74049 36.9693 3.74049 36.947C3.70801 36.9362 3.67552 36.9254 3.64205 36.9142C3.64205 36.8926 3.64205 36.8709 3.64205 36.8486C3.6204 36.8486 3.59874 36.8486 3.57643 36.8486C3.5446 36.8023 3.5131 36.7557 3.48324 36.7081C3.44419 36.6497 3.40121 36.5979 3.35494 36.5451C3.28111 36.4548 3.28111 36.4548 3.28111 36.3892C3.25946 36.3892 3.2378 36.3892 3.21549 36.3892C3.18563 36.3462 3.15577 36.3029 3.12788 36.2589C3.07407 36.1763 3.01566 36.0972 2.95726 36.0178C2.77777 35.7717 2.61535 35.5266 2.47393 35.2565C2.43062 35.1797 2.38271 35.1138 2.32955 35.0439C2.00372 34.4936 1.74516 33.9023 1.50563 33.3111C1.48562 33.2618 1.4656 33.2126 1.44526 33.1634C1.35502 32.9426 1.27693 32.7188 1.20179 32.4927C1.18899 32.454 1.17587 32.4156 1.16274 32.3756C1.04626 32.0215 0.945521 31.6642 0.85299 31.3033C0.842162 31.2613 0.831662 31.2196 0.820506 31.1766C0.784084 31.0336 0.750615 30.8905 0.72174 30.7455C0.710912 30.6959 0.700084 30.6467 0.688928 30.5978C0.659068 30.4652 0.632162 30.3327 0.606896 30.1991C0.599021 30.1568 0.599021 30.1568 0.59049 30.1138C0.58524 30.0849 0.579662 30.0564 0.574084 30.0269C0.56424 29.9586 0.56424 29.9586 0.524865 29.9251C0.509115 29.8126 0.496318 29.7004 0.483849 29.5878C0.48024 29.4674 0.48024 29.4674 0.426428 29.3673C0.393287 29.1603 0.390334 28.9526 0.393615 28.7439C0.371959 28.7439 0.350303 28.7439 0.32799 28.7439C0.325365 28.7111 0.325366 28.7111 0.322412 28.6779C0.314209 28.5802 0.305678 28.4827 0.297475 28.3849C0.292881 28.3337 0.29288 28.3337 0.288615 28.2812C0.285662 28.2488 0.283038 28.2163 0.280085 28.1831C0.27746 28.1529 0.274833 28.1228 0.272208 28.0919C0.269583 28.0227 0.269584 28.0227 0.229553 27.9892C0.222006 27.9062 0.215771 27.8238 0.211178 27.7408C0.209865 27.7175 0.208224 27.6942 0.206912 27.6703C0.203302 27.6125 0.200021 27.5548 0.19674 27.497C0.185912 27.497 0.175084 27.497 0.163928 27.497C0.163271 27.4216 0.162615 27.3464 0.161959 27.2713C0.161303 27.2086 0.161304 27.2086 0.160976 27.1443C0.163929 27.0376 0.163928 27.0376 0.19674 26.972C0.175084 26.972 0.153428 26.972 0.131115 26.972C0.120287 26.7555 0.109459 26.5389 0.0983025 26.3158C0.0874744 26.3158 0.0766463 26.3158 0.06549 26.3158C-0.0204787 24.6617 -0.0103068 23.007 -0.00833807 21.3516C-0.00833807 21.0782 -0.00833839 20.8049 -0.00866652 20.5316C-0.0116196 17.5328 -0.0116186 17.5328 0.0313658 16.39C0.0326783 16.3519 0.0339909 16.3142 0.0356316 16.2751C0.0395691 16.1738 0.0438332 16.072 0.0484269 15.9703C0.0494113 15.9418 0.0507253 15.9129 0.0520378 15.883C0.0615534 15.6924 0.0615525 15.6924 0.0983025 15.6189C0.105521 15.5355 0.110771 15.4529 0.114709 15.3695C0.116021 15.3449 0.117334 15.3203 0.118975 15.295C0.124553 15.1894 0.129803 15.0841 0.135381 14.9787C0.139318 14.9016 0.143584 14.8248 0.147521 14.748C0.148834 14.7241 0.149818 14.7001 0.15113 14.6752C0.160318 14.5069 0.160318 14.5069 0.19674 14.4705C0.204287 14.4199 0.209866 14.3694 0.21446 14.3185C0.217085 14.288 0.220037 14.2572 0.22299 14.2257C0.227255 14.1771 0.227256 14.1771 0.23185 14.1279C0.234803 14.0957 0.237757 14.0636 0.24071 14.0304C0.25646 13.8733 0.256459 13.8733 0.262365 13.7158C0.284021 13.7158 0.305678 13.7158 0.32799 13.7158C0.322084 13.6931 0.316178 13.6708 0.309944 13.6478C0.292225 13.5327 0.305678 13.4388 0.324053 13.324C0.329959 13.2849 0.335865 13.2462 0.342099 13.2062C0.353912 13.135 0.365725 13.0638 0.377537 12.9926C0.400834 12.8525 0.421834 12.7117 0.442834 12.5713C0.457271 12.4817 0.474334 12.3934 0.492053 12.3048C0.507803 12.2057 0.523226 12.1066 0.538319 12.0072C0.557679 11.9111 0.557678 11.9111 0.592787 11.831C0.631834 11.7237 0.623959 11.6309 0.623303 11.5173C0.646271 11.4186 0.646271 11.4186 0.678756 11.3162C0.741756 11.1072 0.794912 10.8972 0.844787 10.6845C0.852334 10.6534 0.859552 10.6225 0.867099 10.5904C0.884162 10.5165 0.901553 10.4427 0.918615 10.3689C0.940271 10.3689 0.961928 10.3689 0.98424 10.3689C0.973412 10.3364 0.962584 10.3039 0.951428 10.2705C0.973412 10.1789 0.997365 10.0913 1.02526 10.0017C1.03247 9.97777 1.03969 9.95381 1.04691 9.92888C1.08924 9.7891 1.13715 9.65194 1.18932 9.51544C1.22312 9.42553 1.25462 9.33464 1.28612 9.24342C1.35469 9.04557 1.42327 8.85 1.51383 8.661C1.54468 8.59374 1.54468 8.59374 1.57126 8.50777C1.61588 8.37652 1.67002 8.2515 1.72679 8.12517C1.73827 8.09958 1.74943 8.07399 1.76124 8.04741C1.8774 7.78917 2.00405 7.53652 2.13268 7.28452C2.16549 7.21889 2.19863 7.15327 2.23111 7.08764C2.25277 7.08764 2.27443 7.08764 2.29674 7.08764C2.30429 7.06074 2.31151 7.03416 2.31938 7.0066C2.37286 6.86222 2.44735 6.73983 2.52872 6.60956C2.54447 6.58364 2.56055 6.55772 2.57729 6.53081C2.71707 6.30638 2.86571 6.08916 3.01861 5.87358C3.04093 5.8411 3.06291 5.80894 3.08588 5.77547C3.10622 5.74561 3.1269 5.71575 3.1479 5.68491C3.1748 5.64553 3.1748 5.64553 3.20204 5.60517C3.2483 5.54546 3.2483 5.54546 3.31393 5.51264C3.34411 5.469 3.37233 5.42438 3.40022 5.3791C3.49079 5.23931 3.59382 5.13005 3.71391 5.01521C3.79036 4.93744 3.84483 4.84885 3.90455 4.75796C3.95869 4.71333 4.01349 4.66936 4.06861 4.62671C4.08896 4.60078 4.1093 4.57519 4.1303 4.54861C4.20446 4.45706 4.28485 4.38914 4.37508 4.314C4.44661 4.25035 4.50174 4.17652 4.5608 4.10171C4.61494 4.05708 4.66974 4.01344 4.72486 3.97046C4.75013 3.94519 4.77507 3.92025 4.80099 3.89433C5.13305 3.56227 5.13305 3.56227 5.31549 3.51108C5.31549 3.48942 5.31549 3.46777 5.31549 3.44546C5.36733 3.39788 5.36733 3.39788 5.44083 3.34275C5.46774 3.32241 5.49497 3.30174 5.52319 3.28074C5.55207 3.25908 5.58094 3.23775 5.6108 3.21577C5.63804 3.1951 5.6656 3.17475 5.69349 3.15375C6.0879 2.86238 6.49477 2.59988 6.9233 2.36264C6.94857 2.34821 6.97351 2.33377 6.99943 2.319C7.22091 2.19267 7.45027 2.08144 7.67865 1.96824C7.73968 1.93772 7.80071 1.90721 7.86174 1.87636C7.89652 1.85897 7.9313 1.84125 7.9674 1.82321C7.99791 1.80746 8.02843 1.79203 8.06026 1.77596C8.13737 1.73921 8.13736 1.73921 8.2358 1.70639C8.2358 1.69556 8.2358 1.68474 8.2358 1.67358C8.26271 1.66505 8.28961 1.65652 8.31718 1.64766C8.44908 1.60205 8.57705 1.54922 8.70568 1.49508C8.87433 1.42453 9.04233 1.35661 9.21722 1.30181C9.29991 1.27524 9.38096 1.24472 9.46233 1.21421C9.61196 1.15908 9.76224 1.11413 9.91646 1.0741C9.98044 1.05703 10.0448 1.03931 10.1084 1.02094C10.1409 1.01142 10.1734 1.00224 10.2068 0.992721C10.2361 0.983861 10.2656 0.97533 10.2961 0.966471C10.3686 0.951705 10.3686 0.951705 10.4342 0.984517C10.4342 0.962861 10.4342 0.941205 10.4342 0.918892C10.4677 0.910361 10.5008 0.902158 10.5353 0.893627C10.557 0.888049 10.5786 0.882799 10.6009 0.877221C10.6488 0.86508 10.6971 0.852939 10.745 0.841127C10.8516 0.814549 10.9583 0.787642 11.0646 0.760408C11.2854 0.703642 11.5075 0.656721 11.7313 0.613408C11.8225 0.595033 11.9128 0.575346 12.0033 0.553689C12.1323 0.524158 12.2606 0.512674 12.3922 0.501517C12.4758 0.493314 12.4758 0.493314 12.5815 0.459517C12.7121 0.422767 12.8345 0.413252 12.969 0.40308C13.0501 0.394549 13.1242 0.380767 13.203 0.36108C13.3598 0.322689 13.5157 0.314814 13.6764 0.304642C13.7956 0.294142 13.9088 0.271174 14.0252 0.245252C14.1568 0.220971 14.2891 0.213424 14.4219 0.204892C14.503 0.201611 14.503 0.201611 14.5686 0.164205C14.6493 0.156986 14.7291 0.151736 14.8098 0.147799C14.8334 0.146158 14.8574 0.144846 14.8816 0.143533C14.9837 0.137955 15.0857 0.132377 15.1875 0.127127C15.2619 0.123189 15.3361 0.118924 15.4106 0.114986C15.4336 0.113674 15.4568 0.112361 15.4808 0.111377C15.6029 0.105799 15.6029 0.105799 15.7171 0.0657674C15.7994 0.0608456 15.8811 0.0578924 15.9635 0.0562518C16.0009 0.0555956 16.0009 0.0555956 16.0389 0.0546112C16.119 0.0526424 16.1991 0.0510018 16.2791 0.0493612C16.3576 0.0473924 16.436 0.0457518 16.5144 0.0437831C16.563 0.0427987 16.6118 0.0414862 16.6604 0.0408299C16.8166 0.0368924 16.9715 0.0277049 17.1273 0.0162206C17.461 -0.00576383 17.7947 -0.00477945 18.1291 -0.00477945ZM15.7171 0.0985799C15.7171 0.109408 15.7171 0.120236 15.7171 0.131392C15.7712 0.131392 15.8253 0.131392 15.8811 0.131392C15.8811 0.120564 15.8811 0.109736 15.8811 0.0985799C15.827 0.0985799 15.7728 0.0985799 15.7171 0.0985799ZM14.5686 0.197017C14.6999 0.22983 14.6999 0.22983 14.6999 0.22983L14.5686 0.197017ZM0.656115 11.5173C0.688928 11.583 0.688928 11.583 0.688928 11.583L0.656115 11.5173ZM0.45924 12.5673C0.492053 12.633 0.492053 12.633 0.492053 12.633L0.45924 12.5673ZM0.360803 13.2236C0.393615 13.2892 0.393615 13.2892 0.393615 13.2892L0.360803 13.2236ZM0.19674 14.5033C0.229553 14.6017 0.229553 14.6017 0.229553 14.6017L0.19674 14.5033ZM0.163928 14.9955C0.19674 15.0939 0.19674 15.0939 0.19674 15.0939L0.163928 14.9955ZM0.0983025 15.6845C0.131115 15.8158 0.131115 15.8158 0.131115 15.8158L0.0983025 15.6845Z" fill="#FA6904"/>
<path d="M8.71401 12.924C8.77275 12.924 8.77275 12.924 8.83247 12.9237C8.87611 12.9237 8.92008 12.924 8.96372 12.924C9.00998 12.924 9.05592 12.924 9.10219 12.9237C9.22983 12.9237 9.35714 12.9237 9.48445 12.924C9.62161 12.924 9.75909 12.9237 9.89625 12.9237C10.1656 12.9237 10.4347 12.9237 10.7041 12.9237C10.9233 12.9237 11.1425 12.9237 11.3617 12.9237C11.3928 12.9237 11.424 12.9237 11.4562 12.9237C11.5195 12.9237 11.5828 12.9237 11.6461 12.9237C12.2414 12.9237 12.8362 12.9237 13.4315 12.924C13.9407 12.924 14.45 12.924 14.9592 12.924C15.5512 12.9237 16.1428 12.9237 16.7347 12.9237C16.798 12.9237 16.8614 12.9237 16.9247 12.9237C16.9559 12.9237 16.987 12.9237 17.0192 12.9237C17.2374 12.9237 17.4556 12.9237 17.6738 12.9237C17.9409 12.9237 18.208 12.9237 18.4751 12.9237C18.6109 12.924 18.7468 12.924 18.8826 12.9237C19.6412 12.9234 20.3982 12.9299 21.1539 13.0021C21.1755 13.0041 21.1969 13.006 21.2192 13.008C21.863 13.0697 22.5146 13.1609 23.1328 13.3548C23.1551 13.3614 23.1771 13.368 23.2001 13.3749C23.7379 13.5363 24.2734 13.7453 24.7078 14.1095C24.7357 14.1322 24.7636 14.1551 24.7921 14.1788C25.7568 15.0079 26.1247 16.3375 26.2828 17.5548C26.2871 17.5854 26.2913 17.6162 26.2956 17.6477C26.3596 18.1346 26.394 18.6226 26.4164 19.1131C26.418 19.1443 26.4193 19.1751 26.4206 19.2073C26.4603 20.1037 26.4577 21.0005 26.458 21.8976C26.458 22.0436 26.458 22.1896 26.4584 22.3356C26.459 22.8203 26.4593 23.3046 26.459 23.7892C26.459 23.8279 26.459 23.8279 26.459 23.8673C26.459 23.8932 26.459 23.9192 26.459 23.9457C26.459 24.368 26.4597 24.7903 26.4607 25.2123C26.4616 25.6487 26.462 26.0851 26.462 26.5215C26.462 26.7656 26.4623 27.0094 26.463 27.2536C26.4636 27.4816 26.4636 27.7097 26.463 27.9377C26.463 28.0214 26.463 28.105 26.4636 28.1887C26.4639 28.3026 26.4636 28.4164 26.4633 28.5303C26.4636 28.5638 26.4639 28.5969 26.4643 28.6314C26.462 28.8522 26.462 28.8522 26.3898 28.9611C26.3061 29.0123 26.2605 29.0228 26.1627 29.0231C26.1322 29.0235 26.1017 29.0241 26.0702 29.0245C26.0367 29.0241 26.0036 29.0241 25.9691 29.0238C25.9163 29.0241 25.9163 29.0241 25.8622 29.0248C25.7453 29.0254 25.6289 29.0251 25.512 29.0248C25.431 29.0251 25.3496 29.0251 25.2686 29.0254C25.0986 29.0258 24.9286 29.0258 24.7587 29.0251C24.5408 29.0248 24.3229 29.0254 24.1047 29.0264C23.9374 29.0274 23.77 29.0271 23.6024 29.0271C23.522 29.0271 23.4419 29.0271 23.3615 29.0277C23.249 29.0281 23.1368 29.0277 23.0245 29.0271C22.9911 29.0274 22.9579 29.0277 22.9235 29.0281C22.7683 29.0261 22.6974 29.0248 22.5717 28.927C22.489 28.8145 22.4726 28.762 22.4723 28.6245C22.472 28.5762 22.472 28.5762 22.472 28.527C22.472 28.4912 22.472 28.4555 22.472 28.4187C22.4716 28.3813 22.4716 28.3436 22.4716 28.3045C22.4713 28.1995 22.471 28.0949 22.471 27.9899C22.471 27.8767 22.4707 27.7635 22.4703 27.6506C22.4697 27.4544 22.4693 27.2582 22.469 27.0619C22.4687 26.7775 22.468 26.4933 22.467 26.2088C22.4661 25.7468 22.4648 25.2848 22.4638 24.8228C22.4638 24.7949 22.4638 24.7674 22.4634 24.7388C22.4628 24.347 22.4618 23.9552 22.4611 23.5635C22.4611 23.5359 22.4611 23.5087 22.4611 23.4801C22.4608 23.4391 22.4608 23.4391 22.4608 23.3968C22.4598 22.9371 22.4588 22.4774 22.4575 22.0177C22.4565 21.7345 22.4562 21.4513 22.4559 21.1682C22.4556 20.9736 22.4549 20.779 22.4542 20.5844C22.4539 20.4722 22.4539 20.3603 22.4539 20.2484C22.4536 19.1387 22.3962 17.9161 21.6366 17.0341C20.8215 16.2568 19.386 16.3027 18.3376 16.303C18.2739 16.303 18.21 16.3027 18.1463 16.3027C17.975 16.3024 17.8034 16.3024 17.6321 16.3024C17.5248 16.3024 17.4179 16.3024 17.3106 16.3021C16.9362 16.3017 16.5618 16.3017 16.1871 16.3017C15.8386 16.3017 15.4901 16.3014 15.1413 16.3007C14.8411 16.3004 14.5412 16.3004 14.241 16.3004C14.0621 16.3004 13.883 16.3001 13.7041 16.2998C13.5365 16.2994 13.3685 16.2994 13.2008 16.2998C13.1391 16.2998 13.0774 16.2998 13.0161 16.2994C12.9321 16.2994 12.8481 16.2994 12.7641 16.2998C12.7398 16.2994 12.7152 16.2994 12.6902 16.2991C12.559 16.3001 12.452 16.307 12.3375 16.3736C12.2633 16.4852 12.2637 16.582 12.2637 16.7135C12.2633 16.7785 12.2633 16.7785 12.2633 16.8448C12.2633 16.893 12.2637 16.9412 12.2637 16.9892C12.2637 17.0403 12.2637 17.0912 12.2633 17.1424C12.263 17.2828 12.2633 17.4233 12.2633 17.5637C12.2637 17.7153 12.2633 17.8666 12.2633 18.0182C12.263 18.2807 12.263 18.5432 12.263 18.8057C12.263 19.185 12.2627 19.5646 12.262 19.9442C12.2614 20.5605 12.2607 21.1764 12.2601 21.7926C12.2601 21.848 12.2601 21.848 12.2601 21.9045C12.2597 22.4282 12.2597 22.9518 12.2594 23.4755C12.2594 23.5123 12.2594 23.549 12.2594 23.5871C12.2594 23.6238 12.2594 23.6609 12.2594 23.6987C12.2594 24.3126 12.2587 24.9262 12.2578 25.5401C12.2571 25.9187 12.2568 26.2974 12.2571 26.6764C12.2574 26.9356 12.2571 27.1952 12.2565 27.4547C12.2561 27.6043 12.2561 27.7543 12.2565 27.9039C12.2568 28.0411 12.2568 28.1779 12.2561 28.315C12.2558 28.3646 12.2558 28.4145 12.2561 28.464C12.2568 28.5313 12.2561 28.5989 12.2558 28.6661C12.2555 28.7035 12.2555 28.741 12.2555 28.7797C12.2355 28.8962 12.2003 28.9345 12.1078 29.0064C12.0353 29.0228 12.0353 29.0228 11.9549 29.0228C11.909 29.0235 11.909 29.0235 11.8624 29.0241C11.8289 29.0238 11.7958 29.0235 11.7613 29.0231C11.7085 29.0235 11.7085 29.0235 11.6543 29.0238C11.5375 29.0245 11.421 29.0241 11.3042 29.0238C11.2232 29.0238 11.1418 29.0238 11.0608 29.0241C10.8908 29.0241 10.7208 29.0241 10.5509 29.0235C10.333 29.0225 10.1151 29.0231 9.89691 29.0238C9.72956 29.0245 9.56222 29.0241 9.39455 29.0238C9.31416 29.0238 9.23409 29.0238 9.1537 29.0241C9.04116 29.0245 8.92894 29.0241 8.81672 29.0231C8.76684 29.0238 8.76684 29.0238 8.71566 29.0241C8.68514 29.0238 8.6543 29.0235 8.6228 29.0228C8.59622 29.0228 8.56964 29.0228 8.54241 29.0228C8.43117 28.9989 8.38097 28.9569 8.30156 28.8752C8.28516 28.7813 8.27958 28.7072 8.28089 28.6133C8.28089 28.5867 8.28056 28.5598 8.28023 28.5326C8.27958 28.4424 8.28023 28.3525 8.28089 28.2625C8.28056 28.1976 8.28023 28.1326 8.27991 28.0676C8.27925 27.8885 8.27958 27.7097 8.28023 27.5305C8.28056 27.3379 8.27991 27.145 8.27958 26.952C8.27892 26.5743 8.27892 26.1963 8.27958 25.8183C8.27991 25.5112 8.27991 25.2041 8.27958 24.897C8.27958 24.8753 8.27958 24.8533 8.27958 24.831C8.27958 24.7424 8.27958 24.6542 8.27958 24.5656C8.27892 23.7351 8.27958 22.9043 8.28023 22.0738C8.28122 21.3355 8.28122 20.5975 8.28023 19.8593C8.27925 19.0304 8.27892 18.2012 8.27958 17.3724C8.27958 17.2841 8.27958 17.1955 8.27958 17.1073C8.27958 17.0856 8.27958 17.064 8.27991 17.0413C8.27991 16.7125 8.27958 16.3841 8.27925 16.0553C8.27892 15.6816 8.27892 15.3075 8.27991 14.9338C8.28023 14.7431 8.28056 14.5522 8.27991 14.3615C8.27925 14.187 8.27958 14.0124 8.28056 13.8378C8.28089 13.7745 8.28056 13.7112 8.28023 13.6482C8.27991 13.5622 8.28023 13.4766 8.28089 13.3909C8.28056 13.366 8.28023 13.3411 8.27991 13.3158C8.2822 13.1855 8.29697 13.1304 8.38097 13.0284C8.5027 12.9316 8.56012 12.924 8.71401 12.924Z" fill="#FDFDFD"/>
<path d="M29.9022 12.9229C29.9317 12.9225 29.9616 12.9222 29.9921 12.9219C30.0246 12.9215 30.0574 12.9215 30.0908 12.9212C30.1253 12.9209 30.1597 12.9206 30.1949 12.9202C30.3087 12.9192 30.4229 12.9186 30.5368 12.9179C30.5755 12.9179 30.6142 12.9176 30.6542 12.9173C30.86 12.9163 31.0654 12.9156 31.2708 12.915C31.4411 12.9143 31.6114 12.913 31.7817 12.9114C31.9871 12.9094 32.1925 12.9084 32.3979 12.9081C32.4763 12.9078 32.5547 12.9071 32.6328 12.9064C32.7424 12.9051 32.852 12.9051 32.9616 12.9051C32.9941 12.9045 33.0266 12.9038 33.06 12.9032C33.0899 12.9035 33.1198 12.9038 33.1509 12.9042C33.1896 12.9042 33.1896 12.9042 33.2294 12.9038C33.3452 12.9412 33.4082 13.0233 33.4686 13.125C33.4843 13.2214 33.4909 13.2986 33.4892 13.3947C33.4896 13.4216 33.4896 13.4485 33.4899 13.4761C33.4905 13.566 33.4899 13.6559 33.4892 13.7458C33.4896 13.8108 33.4896 13.8757 33.4899 13.9407C33.4905 14.1199 33.4902 14.2987 33.4896 14.4775C33.4892 14.6704 33.4896 14.8631 33.4902 15.056C33.4905 15.434 33.4905 15.8117 33.4899 16.1897C33.4892 16.4965 33.4892 16.8036 33.4892 17.1104C33.4892 17.1324 33.4892 17.154 33.4892 17.1763C33.4892 17.2649 33.4896 17.3535 33.4896 17.4421C33.4899 18.2723 33.4892 19.1024 33.4882 19.9329C33.4873 20.6709 33.4869 21.4088 33.4876 22.1468C33.4876 22.3358 33.4879 22.5248 33.4879 22.7138C33.4879 22.7486 33.4879 22.7486 33.4879 22.7843C33.4882 23.4005 33.4882 24.0171 33.4876 24.6333C33.4876 24.6996 33.4876 24.7659 33.4876 24.8322C33.4876 24.8761 33.4876 24.9204 33.4876 24.9644C33.4873 25.2928 33.4873 25.6216 33.4876 25.9504C33.4879 26.3238 33.4876 26.6975 33.4866 27.0713C33.4863 27.2619 33.4863 27.4526 33.4866 27.6432C33.4869 27.8178 33.4866 27.9923 33.4859 28.1666C33.4856 28.2299 33.4856 28.2932 33.4859 28.3565C33.4863 28.4422 33.4859 28.5278 33.4853 28.6135C33.4856 28.6384 33.4859 28.663 33.4863 28.6889C33.4846 28.8031 33.4771 28.8642 33.4065 28.956C33.3252 29.0151 33.2845 29.0226 33.1844 29.023C33.1385 29.0236 33.1385 29.0236 33.0919 29.024C33.0584 29.0236 33.0253 29.0236 32.9908 29.0233C32.938 29.0236 32.938 29.0236 32.8838 29.024C32.767 29.0246 32.6505 29.0243 32.5337 29.0236C32.4527 29.0236 32.3716 29.024 32.2903 29.024C32.1203 29.0243 31.9503 29.024 31.7804 29.0233C31.5625 29.0226 31.3446 29.023 31.1264 29.024C30.9591 29.0243 30.7917 29.0243 30.624 29.024C30.5436 29.0236 30.4636 29.0239 30.3832 29.0243C30.2706 29.0246 30.1584 29.024 30.0462 29.0233C29.9963 29.0236 29.9963 29.0236 29.9451 29.024C29.9146 29.0236 29.8838 29.0233 29.8523 29.023C29.8257 29.023 29.7991 29.023 29.7719 29.0226C29.6607 28.9987 29.6105 28.9567 29.5311 28.875C29.5146 28.7815 29.5091 28.707 29.5104 28.6135C29.5104 28.5866 29.5101 28.56 29.5097 28.5324C29.5091 28.4425 29.5097 28.3523 29.5104 28.2624C29.5101 28.1974 29.5097 28.1324 29.5094 28.0675C29.5087 27.8886 29.5091 27.7095 29.5097 27.5307C29.5101 27.3377 29.5094 27.1451 29.5091 26.9522C29.5084 26.5742 29.5084 26.1962 29.5091 25.8182C29.5094 25.5114 29.5094 25.2042 29.5091 24.8971C29.5091 24.8751 29.5091 24.8535 29.5091 24.8308C29.5091 24.7426 29.5091 24.654 29.5091 24.5654C29.5084 23.7349 29.5091 22.9044 29.5097 22.0739C29.5107 21.3357 29.5107 20.5974 29.5097 19.8594C29.5087 19.0302 29.5084 18.2014 29.5091 17.3722C29.5091 17.284 29.5091 17.1957 29.5091 17.1074C29.5091 17.0854 29.5091 17.0638 29.5094 17.0415C29.5094 16.7127 29.5091 16.3839 29.5087 16.0551C29.5084 15.6814 29.5084 15.3077 29.5094 14.9339C29.5097 14.743 29.5101 14.5523 29.5094 14.3614C29.5087 14.1868 29.5091 14.0126 29.5101 13.838C29.5104 13.7747 29.5101 13.7113 29.5097 13.648C29.5094 13.5624 29.5097 13.4764 29.5104 13.3908C29.5101 13.3662 29.5097 13.3412 29.5094 13.3156C29.5117 13.1854 29.5265 13.1306 29.6105 13.0285C29.7181 12.9425 29.7676 12.9242 29.9022 12.9229Z" fill="#FDFDFD"/>
<path d="M15.9101 19.1164C15.9462 19.1161 15.982 19.1161 16.0191 19.1158C16.1378 19.1151 16.257 19.1151 16.3757 19.1155C16.4584 19.1155 16.5408 19.1151 16.6235 19.1148C16.7964 19.1148 16.9696 19.1148 17.1426 19.1151C17.3424 19.1155 17.5426 19.1151 17.7424 19.1142C17.935 19.1132 18.1273 19.1132 18.3199 19.1135C18.4019 19.1135 18.4836 19.1132 18.5656 19.1128C18.6798 19.1122 18.794 19.1128 18.9085 19.1132C18.9594 19.1128 18.9594 19.1128 19.0112 19.1122C19.2406 19.1148 19.2406 19.1148 19.3466 19.1922C19.4171 19.2986 19.4293 19.3566 19.4293 19.4833C19.4296 19.5168 19.4296 19.5499 19.4299 19.5844C19.4299 19.6211 19.4296 19.6582 19.4296 19.6962C19.4299 19.735 19.4299 19.774 19.4299 19.814C19.4303 19.9227 19.4303 20.0309 19.4303 20.1395C19.4303 20.2564 19.4306 20.3732 19.4309 20.49C19.4312 20.7456 19.4316 21.0015 19.4316 21.2571C19.4319 21.4166 19.4319 21.5761 19.4319 21.7355C19.4326 22.1772 19.4329 22.6185 19.4329 23.0602C19.4329 23.1025 19.4329 23.1025 19.4329 23.1458C19.4329 23.1882 19.4329 23.1882 19.4329 23.2315C19.4329 23.2889 19.4329 23.3463 19.4329 23.4037C19.4329 23.4323 19.4329 23.4608 19.4329 23.49C19.4332 23.952 19.4339 24.4137 19.4345 24.8754C19.4352 25.3492 19.4355 25.8227 19.4358 26.2965C19.4358 26.5626 19.4358 26.8287 19.4365 27.0948C19.4371 27.3215 19.4371 27.5479 19.4368 27.7744C19.4368 27.8902 19.4368 28.0057 19.4371 28.1215C19.4378 28.2469 19.4375 28.3719 19.4371 28.4972C19.4375 28.5523 19.4375 28.5523 19.4378 28.6084C19.4375 28.6587 19.4375 28.6587 19.4371 28.7098C19.4375 28.7387 19.4375 28.7679 19.4375 28.7974C19.4224 28.8919 19.3915 28.9372 19.3266 29.0061C19.255 29.0229 19.255 29.0229 19.1701 29.0232C19.1379 29.0235 19.1057 29.0239 19.0726 29.0245C19.0198 29.0242 19.0198 29.0242 18.9656 29.0239C18.9286 29.0242 18.8911 29.0242 18.8531 29.0245C18.7297 29.0255 18.6063 29.0252 18.483 29.0248C18.3973 29.0252 18.312 29.0252 18.2264 29.0255C18.0469 29.0258 17.8674 29.0258 17.6879 29.0252C17.4805 29.0245 17.2735 29.0252 17.0661 29.0262C16.8666 29.0271 16.6671 29.0271 16.4676 29.0268C16.3826 29.0268 16.2976 29.0271 16.213 29.0275C16.0942 29.0281 15.9758 29.0278 15.857 29.0271C15.8219 29.0275 15.7868 29.0278 15.7507 29.0281C15.5121 29.0252 15.5121 29.0252 15.3845 28.9271C15.3031 28.8135 15.2867 28.7604 15.2864 28.6229C15.2864 28.5904 15.286 28.5579 15.286 28.5241C15.286 28.4884 15.286 28.4523 15.286 28.4149C15.286 28.3768 15.286 28.3387 15.2857 28.2997C15.2857 28.1934 15.2854 28.0874 15.2854 27.9814C15.2854 27.8669 15.2851 27.7527 15.2851 27.6382C15.2844 27.3882 15.2844 27.1381 15.2841 26.8881C15.2841 26.7319 15.2841 26.5757 15.2837 26.4199C15.2834 25.9877 15.2831 25.5556 15.2831 25.1234C15.2831 25.0959 15.2828 25.0683 15.2828 25.0398C15.2828 24.9981 15.2828 24.9981 15.2828 24.9558C15.2828 24.8993 15.2828 24.8432 15.2828 24.7871C15.2828 24.7592 15.2828 24.7313 15.2828 24.7024C15.2828 24.2509 15.2821 23.7991 15.2814 23.3473C15.2805 22.884 15.2801 22.4203 15.2801 21.9567C15.2801 21.6965 15.2798 21.436 15.2795 21.1758C15.2788 20.9539 15.2785 20.7321 15.2788 20.5107C15.2791 20.3974 15.2791 20.2842 15.2785 20.171C15.2782 20.0487 15.2782 19.9259 15.2788 19.8032C15.2785 19.7674 15.2782 19.7317 15.2778 19.6949C15.2791 19.5148 15.2857 19.3829 15.3891 19.228C15.5367 19.0922 15.7208 19.1155 15.9101 19.1164Z" fill="#FDFDFD"/>
<path d="M41.9343 24.6422C41.9452 24.6422 41.956 24.6422 41.9671 24.6422C41.9671 24.8262 41.9671 25.0103 41.9671 25.2C41.9563 25.2 41.9455 25.2 41.9343 25.2C41.9343 25.0159 41.9343 24.8318 41.9343 24.6422Z" fill="black"/>
<path d="M41.9343 16.8328C41.9452 16.8328 41.956 16.8328 41.9671 16.8328C41.9671 17.0061 41.9671 17.1793 41.9671 17.3578C41.9563 17.3578 41.9455 17.3578 41.9343 17.3578C41.9343 17.1846 41.9343 17.0113 41.9343 16.8328Z" fill="black"/>
<path d="M41.8359 26.4797C41.8468 26.4797 41.8576 26.4797 41.8687 26.4797C41.8687 26.5771 41.8687 26.6746 41.8687 26.775C41.8579 26.775 41.8471 26.775 41.8359 26.775C41.8359 26.6775 41.8359 26.5801 41.8359 26.4797Z" fill="black"/>
<path d="M41.8359 15.2906C41.8468 15.2906 41.8576 15.2906 41.8687 15.2906C41.8687 15.3881 41.8687 15.4855 41.8687 15.5859C41.8579 15.5859 41.8471 15.5859 41.8359 15.5859C41.8359 15.4885 41.8359 15.391 41.8359 15.2906Z" fill="black"/>
<path d="M26.4797 41.8359C26.5664 41.8359 26.653 41.8359 26.7422 41.8359C26.7422 41.8468 26.7422 41.8576 26.7422 41.8687C26.6556 41.8687 26.569 41.8687 26.4797 41.8687C26.4797 41.8579 26.4797 41.8471 26.4797 41.8359Z" fill="black"/>
<path d="M15.2578 41.8359C15.3444 41.8359 15.4311 41.8359 15.5203 41.8359C15.5203 41.8468 15.5203 41.8576 15.5203 41.8687C15.4337 41.8687 15.3471 41.8687 15.2578 41.8687C15.2578 41.8579 15.2578 41.8471 15.2578 41.8359Z" fill="black"/>
<path d="M41.7375 14.2406C41.7484 14.2406 41.7592 14.2406 41.7704 14.2406C41.7704 14.3056 41.7704 14.3706 41.7704 14.4375C41.7595 14.4375 41.7487 14.4375 41.7375 14.4375C41.7375 14.3726 41.7375 14.3076 41.7375 14.2406Z" fill="black"/>
<path d="M27.6282 41.7375C27.6823 41.7375 27.7365 41.7375 27.7922 41.7375C27.7922 41.7483 27.7922 41.7592 27.7922 41.7703C27.7381 41.7703 27.684 41.7703 27.6282 41.7703C27.6282 41.7595 27.6282 41.7487 27.6282 41.7375Z" fill="black"/>
<path d="M14.2078 41.7375C14.2619 41.7375 14.316 41.7375 14.3718 41.7375C14.3718 41.7483 14.3718 41.7592 14.3718 41.7703C14.3177 41.7703 14.2635 41.7703 14.2078 41.7703C14.2078 41.7595 14.2078 41.7487 14.2078 41.7375Z" fill="black"/>
<path d="M41.7375 27.6281C41.7484 27.6281 41.7592 27.6281 41.7704 27.6281C41.7704 27.6823 41.7704 27.7364 41.7704 27.7922C41.7595 27.7922 41.7487 27.7922 41.7375 27.7922C41.7375 27.738 41.7375 27.6839 41.7375 27.6281Z" fill="black"/>
<path d="M28.4812 41.6391C28.5796 41.6719 28.5796 41.6719 28.5796 41.6719L28.4812 41.6391Z" fill="black"/>
<path d="M13.4202 41.6391C13.5186 41.6719 13.5186 41.6719 13.5186 41.6719L13.4202 41.6391Z" fill="black"/>
<path d="M30.5813 41.2781C30.6469 41.3109 30.6469 41.3109 30.6469 41.3109L30.5813 41.2781Z" fill="black"/>
<path d="M11.3533 41.2781C11.4189 41.3109 11.4189 41.3109 11.4189 41.3109L11.3533 41.2781Z" fill="black"/>
<path d="M31.0078 41.1797C31.0734 41.2125 31.0734 41.2125 31.0734 41.2125L31.0078 41.1797Z" fill="black"/>
<path d="M10.9265 41.1797C10.9921 41.2125 10.9921 41.2125 10.9921 41.2125L10.9265 41.1797Z" fill="black"/>
</g>
<path d="M47.2651 17L50.1107 10.313H51.4576L54.3031 17H52.776L52.1689 15.5108H49.3613L48.7543 17H47.2651ZM49.883 14.2208H51.6473L50.7651 12.0677L49.883 14.2208ZM55.3279 17V10.3604H58.4106C59.1789 10.3604 59.7575 10.5596 60.1463 10.9485C60.4499 11.252 60.6016 11.6314 60.6016 12.0772V12.0962C60.6016 12.836 60.2033 13.2818 59.729 13.5284C60.4973 13.8225 60.9716 14.2778 60.9716 15.1599V15.1788C60.9716 16.3929 59.9851 17 58.4864 17H55.3279ZM59.1504 12.3428V12.3238C59.1504 11.878 58.8089 11.6409 58.1924 11.6409H56.7507V13.0447H58.0975C58.7425 13.0447 59.1504 12.836 59.1504 12.3428ZM59.5203 14.9986V14.9797C59.5203 14.5339 59.1978 14.2588 58.439 14.2588H56.7507V15.7195H58.4864C59.1314 15.7195 59.5203 15.4919 59.5203 14.9986ZM63.6266 17V11.7073H61.6062V10.3604H67.1076V11.7073H65.0873V17H63.6266ZM71.1689 17.1138C69.1201 17.1138 67.6499 15.5867 67.6499 13.6992V13.6802C67.6499 11.7926 69.139 10.2466 71.1878 10.2466C73.2366 10.2466 74.7068 11.7737 74.7068 13.6612V13.6802C74.7068 15.5677 73.2177 17.1138 71.1689 17.1138ZM71.1878 15.7669C72.364 15.7669 73.1797 14.8374 73.1797 13.6992V13.6802C73.1797 12.542 72.345 11.5934 71.1689 11.5934C69.9927 11.5934 69.177 12.523 69.177 13.6612V13.6802C69.177 14.8184 70.0117 15.7669 71.1878 15.7669ZM76.0026 17V10.3604H78.7154C80.2994 10.3604 81.2574 11.2899 81.2574 12.6558V12.6748C81.2574 14.2208 80.0622 15.0081 78.5731 15.0081H77.4633V17H76.0026ZM77.4633 13.7086H78.6205C79.3509 13.7086 79.7777 13.2723 79.7777 12.7032V12.6842C79.7777 12.0298 79.3224 11.6788 78.592 11.6788H77.4633V13.7086ZM88.2382 17H86.7775V12.6653L83.6284 17H82.3384V10.3604H83.7991V14.5623L86.8439 10.3604H88.2382V17ZM90.3917 12.3333L89.5096 11.3468C90.2589 10.6734 91.0651 10.2466 92.2508 10.2466C93.8443 10.2466 94.7454 10.939 94.7454 12.0393V12.0487C94.7454 12.9119 94.2996 13.3103 93.6166 13.5853C94.3849 13.794 94.9256 14.1924 94.9256 15.1314V15.1409C94.9256 16.2696 93.9202 17.1138 92.1559 17.1138C90.9418 17.1138 90.0597 16.687 89.3862 16.0894L90.2494 15.0461C90.8185 15.4919 91.435 15.8049 92.1939 15.8049C92.9147 15.8049 93.4459 15.5488 93.4459 15.0176V15.0081C93.4459 14.5244 92.9811 14.2493 92.1844 14.2588H90.9608V13.0447H92.2223C92.9052 13.0447 93.2657 12.7222 93.2657 12.2669V12.2574C93.2657 11.8116 92.8768 11.546 92.2223 11.5555C91.5394 11.5555 90.9513 11.878 90.3917 12.3333ZM99.3928 17.1138C97.344 17.1138 95.8738 15.5867 95.8738 13.6992V13.6802C95.8738 11.7926 97.363 10.2466 99.4118 10.2466C101.461 10.2466 102.931 11.7737 102.931 13.6612V13.6802C102.931 15.5677 101.442 17.1138 99.3928 17.1138ZM99.4118 15.7669C100.588 15.7669 101.404 14.8374 101.404 13.6992V13.6802C101.404 12.542 100.569 11.5934 99.3928 11.5934C98.2167 11.5934 97.4009 12.523 97.4009 13.6612V13.6802C97.4009 14.8184 98.2356 15.7669 99.4118 15.7669ZM104.227 17V10.3604H107.309C108.078 10.3604 108.656 10.5596 109.045 10.9485C109.349 11.252 109.5 11.6314 109.5 12.0772V12.0962C109.5 12.836 109.102 13.2818 108.628 13.5284C109.396 13.8225 109.87 14.2778 109.87 15.1599V15.1788C109.87 16.3929 108.884 17 107.385 17H104.227ZM108.049 12.3428V12.3238C108.049 11.878 107.708 11.6409 107.091 11.6409H105.649V13.0447H106.996C107.641 13.0447 108.049 12.836 108.049 12.3428ZM108.419 14.9986V14.9797C108.419 14.5339 108.096 14.2588 107.338 14.2588H105.649V15.7195H107.385C108.03 15.7195 108.419 15.4919 108.419 14.9986ZM110.503 17L113.348 10.313H114.695L117.541 17H116.014L115.407 15.5108H112.599L111.992 17H110.503ZM113.121 14.2208H114.885L114.003 12.0677L113.121 14.2208ZM118.565 17V10.3604H120.026V12.9878H122.72V10.3604H124.181V17H122.72V14.3347H120.026V17H118.565ZM131.672 17H130.211V12.6653L127.062 17H125.772V10.3604H127.233V14.5623L130.277 10.3604H131.672V17ZM139.165 17H137.705V12.6653L134.556 17H133.266V10.3604H134.726V14.5623L137.771 10.3604H139.165V17ZM136.216 9.85766C135.201 9.85766 134.499 9.35495 134.413 8.44437H135.4C135.514 8.73841 135.732 8.90915 136.216 8.90915C136.699 8.90915 136.917 8.73841 137.031 8.44437H138.018C137.932 9.35495 137.23 9.85766 136.216 9.85766Z" fill="black"/>
<path d="M47.9726 31.8706V24.9042H49.6246L51.4558 27.85L53.287 24.9042H54.939V31.8706H53.4163V27.3225L51.4558 30.2982H51.416L49.4753 27.3524V31.8706H47.9726ZM56.0154 31.8706L59.001 24.8544H60.4142L63.3998 31.8706H61.7976L61.1606 30.3081H58.2148L57.5779 31.8706H56.0154ZM58.7622 28.9546H60.6133L59.6877 26.6955L58.7622 28.9546ZM64.475 31.8706V24.9042H69.4809V26.2974H66.0077V31.8706H64.475ZM68.747 31.8706L71.7326 24.8544H73.1458L76.1314 31.8706H74.5292L73.8922 30.3081H70.9464L70.3095 31.8706H68.747ZM71.4938 28.9546H73.3449L72.4193 26.6955L71.4938 28.9546ZM77.7452 26.9742L76.8197 25.9392C77.6059 25.2326 78.4518 24.7847 79.6958 24.7847C81.3677 24.7847 82.3132 25.5112 82.3132 26.6657V26.6756C82.3132 27.5813 81.8454 27.9992 81.1289 28.2878C81.935 28.5068 82.5023 28.9248 82.5023 29.91V29.92C82.5023 31.1043 81.4474 31.99 79.5963 31.99C78.3224 31.99 77.3969 31.5422 76.6903 30.9152L77.5959 29.8205C78.1931 30.2882 78.8399 30.6166 79.6361 30.6166C80.3925 30.6166 80.9498 30.3479 80.9498 29.7906V29.7807C80.9498 29.2731 80.4621 28.9845 79.6261 28.9944H78.3423V27.7206H79.666C80.3825 27.7206 80.7607 27.3822 80.7607 26.9045V26.8946C80.7607 26.4268 80.3526 26.1482 79.666 26.1581C78.9494 26.1581 78.3324 26.4965 77.7452 26.9742ZM89.9958 31.8706H88.4632V27.3225L85.1592 31.8706H83.8057V24.9042H85.3383V29.3129L88.5329 24.9042H89.9958V31.8706ZM91.6682 31.8706V24.9042H93.2008V27.6609H96.0272V24.9042H97.5598V31.8706H96.0272V29.0741H93.2008V31.8706H91.6682ZM106.512 24.9042H108.254L105.925 28.3078L108.353 31.8706H106.562L105 29.4821L103.427 31.8706H101.686L104.114 28.3277L101.785 24.9042H103.576L105.029 27.1633L106.512 24.9042ZM109.572 31.8706V24.9042H111.104V31.8706H109.572ZM112.248 31.8706L115.234 24.8544H116.647L119.633 31.8706H118.03L117.393 30.3081H114.448L113.811 31.8706H112.248ZM114.995 28.9546H116.846L115.921 26.6955L114.995 28.9546ZM123.644 31.99C121.495 31.99 119.952 30.3877 119.952 28.4073V28.3874C119.952 26.4069 121.515 24.7847 123.664 24.7847C125.814 24.7847 127.357 26.387 127.357 28.3675V28.3874C127.357 30.3678 125.794 31.99 123.644 31.99ZM123.664 30.5768C124.898 30.5768 125.754 29.6015 125.754 28.4073V28.3874C125.754 27.1931 124.879 26.1979 123.644 26.1979C122.41 26.1979 121.555 27.1732 121.555 28.3675V28.3874C121.555 29.5816 122.43 30.5768 123.664 30.5768ZM128.716 31.8706V24.9042H130.368L132.199 27.85L134.031 24.9042H135.683V31.8706H134.16V27.3225L132.199 30.2982H132.16L130.219 27.3524V31.8706H128.716ZM137.426 31.8706V24.9042H138.958V31.8706H137.426Z" fill="black"/>
<defs>
<clipPath id="clip0_6_138">
<rect width="42" height="42" fill="white"/>
</clipPath>
</defs>
</svg>
