<svg width="76" height="30" viewBox="0 0 76 30" fill="none" xmlns="http://www.w3.org/2000/svg">
<g clip-path="url(#clip0_663_349)">
<rect width="76" height="30" fill="white"/>
<g filter="url(#filter0_b_663_349)">
<rect width="76" height="30" fill="white" fill-opacity="0.23"/>
</g>
<path fill-rule="evenodd" clip-rule="evenodd" d="M25.2803 19.7612C25.8871 23.1509 26.0051 25.0603 25.8823 26.2085C29.8918 23.9792 31.9611 18.9766 28.607 13.2727C28.607 13.2727 28.7629 17.6902 27.5743 17.5868C26.0625 17.5367 25.2019 9.7674 26.5142 7.07664C25.2859 8.25395 24.2977 9.47893 23.6876 10.7791C22.4829 6.70737 19.1529 3.76934 13.7415 1.93994C13.7415 1.93994 17.5627 8.16668 14.2579 9.46762C12.5734 10.0868 11.7497 9.12556 10.5205 7.69108L10.5205 7.69107L10.5205 7.69106C10.3445 7.48571 10.1602 7.27066 9.96394 7.04916C11.1865 9.60257 10.4859 16.761 8.49654 16.6147C6.76411 16.6002 7.79032 13.2452 7.79032 13.2452C4.48544 19.5293 6.79158 24.0139 10.6508 26.1156C10.5441 24.9585 10.6718 23.0612 11.2625 19.7612C11.8038 16.7424 12.4826 13.966 12.5117 13.8496L12.7452 12.8953H14.009C14.5334 10.9536 16.2456 9.5266 18.2714 9.5266C20.2971 9.5266 22.0094 10.9536 22.5338 12.8953H23.7975L24.0319 13.8496L24.0339 13.8578C24.0831 14.06 24.7489 16.7935 25.2803 19.7612ZM13.7245 14.1477H15.0934C15.0935 12.2901 16.5177 10.7789 18.2683 10.7789C20.019 10.7789 21.4432 12.2901 21.4432 14.1477H22.8121C22.8121 14.1477 26.0054 27.1571 24.0241 27.1571H12.5125C10.5312 27.1571 13.7245 14.1477 13.7245 14.1477ZM18.2683 11.9102C19.3952 11.9102 20.3119 12.9139 20.312 14.1477H16.2247C16.2247 12.9139 17.1415 11.9102 18.2683 11.9102Z" fill="white"/>
<g clip-path="url(#clip1_663_349)">
<path d="M25.8823 26.2085C26.0051 25.0603 25.8871 23.1509 25.2803 19.7612C24.7397 16.7424 24.0602 13.966 24.0319 13.8496L23.7975 12.8953H22.5338C22.0094 10.9536 20.2971 9.5266 18.2714 9.5266C16.2456 9.5266 14.5334 10.9536 14.009 12.8953H12.7452L12.5117 13.8496C12.4826 13.966 11.8038 16.7424 11.2625 19.7612C10.6718 23.0612 10.5441 24.9585 10.6508 26.1156C6.79158 24.0139 4.48544 19.5293 7.79032 13.2452C7.79032 13.2452 6.76411 16.6002 8.49654 16.6147C10.4859 16.761 11.1865 9.60257 9.96394 7.04916C11.5315 8.81795 12.3323 10.1755 14.2579 9.46762C17.5627 8.16668 13.7415 1.93994 13.7415 1.93994C19.1529 3.76934 22.4829 6.70737 23.6877 10.7791C24.2977 9.47893 25.286 8.25395 26.5142 7.07664C25.2019 9.7674 26.0625 17.5367 27.5743 17.5868C28.7629 17.6902 28.607 13.2727 28.607 13.2727C31.9611 18.9766 29.8918 23.9792 25.8823 26.2085Z" fill="url(#paint0_linear_663_349)"/>
<path d="M22.8123 14.1477H13.7247C13.7247 14.1477 10.5313 27.1571 12.5126 27.1571H24.0243C26.0056 27.1571 22.8123 14.1477 22.8123 14.1477Z" fill="url(#paint1_radial_663_349)"/>
<path d="M21.4433 14.1478H20.3121C20.3121 12.914 19.3953 11.9102 18.2684 11.9102C17.1415 11.9102 16.2248 12.914 16.2248 14.1478H15.0935C15.0935 12.2902 16.5178 10.7789 18.2684 10.7789C20.0191 10.7789 21.4433 12.2902 21.4433 14.1478Z" fill="url(#paint2_radial_663_349)"/>
<path d="M16.0004 21.0945C16.8649 21.0945 17.4047 20.4435 17.4047 19.3846C17.4047 18.3188 16.8596 17.6939 16.0004 17.6939C15.1412 17.6939 14.5944 18.3206 14.5944 19.3864C14.5944 20.4487 15.1359 21.0945 16.0004 21.0945ZM16.0004 20.388C15.6619 20.388 15.4779 20.0408 15.4779 19.3864C15.4779 18.7406 15.6636 18.3969 16.0004 18.3969C16.3371 18.3969 16.5212 18.7389 16.5212 19.3864C16.5212 20.0408 16.3389 20.388 16.0004 20.388ZM20.5379 24.2572C21.4024 24.2572 21.9422 23.608 21.9422 22.5508C21.9422 21.4833 21.3972 20.8566 20.5379 20.8566C19.6804 20.8566 19.1319 21.485 19.1319 22.5526C19.1319 23.6132 19.6735 24.2572 20.5379 24.2572ZM20.5379 23.5542C20.1994 23.5542 20.0154 23.2052 20.0154 22.5526C20.0154 21.9051 20.2012 21.5631 20.5379 21.5631C20.8747 21.5631 21.0587 21.9034 21.0587 22.5526C21.0587 23.2052 20.8764 23.5542 20.5379 23.5542ZM16.0959 24.2311C16.1946 24.2897 16.312 24.3082 16.4239 24.2831C16.5359 24.2579 16.634 24.1909 16.6982 24.0957L20.5587 18.3188C20.5946 18.2717 20.6201 18.2175 20.6335 18.1599C20.6468 18.1022 20.6478 18.0423 20.6363 17.9842C20.6248 17.9261 20.6012 17.8712 20.5668 17.8229C20.5325 17.7747 20.4883 17.7342 20.4372 17.7043C20.2446 17.5967 20.0015 17.6453 19.8505 17.8658L15.99 23.6236C15.832 23.8562 15.8893 24.1096 16.0959 24.2311Z" fill="white"/>
</g>
<path d="M38.2792 18.2693L40.8459 11.5858H41.7987L44.5341 18.2693H43.5266L42.747 16.2451H39.9523L39.2183 18.2693H38.2792ZM40.2076 15.5248H42.4735L41.7759 13.6738C41.5632 13.1115 41.4051 12.6495 41.3018 12.2878C41.2167 12.7164 41.0966 13.1419 40.9416 13.5644L40.2076 15.5248ZM45.386 13.4276H46.2066V15.5202C46.468 15.5202 46.6504 15.47 46.7537 15.3697C46.8601 15.2695 47.0151 14.9777 47.2188 14.4944C47.3798 14.1115 47.5105 13.8592 47.6108 13.7376C47.7111 13.616 47.8266 13.534 47.9573 13.4914C48.088 13.4489 48.2977 13.4276 48.5865 13.4276H48.7506V14.1069L48.5226 14.1023C48.3068 14.1023 48.1685 14.1343 48.1078 14.1981C48.0439 14.2649 47.9467 14.464 47.816 14.7953C47.6914 15.1114 47.5774 15.3302 47.4741 15.4518C47.3707 15.5734 47.2112 15.6843 46.9954 15.7846C47.3479 15.8788 47.6944 16.2071 48.0348 16.7694L48.9329 18.2693H48.0303L47.1549 16.7694C46.9756 16.4685 46.8191 16.2709 46.6853 16.1767C46.5516 16.0794 46.392 16.0308 46.2066 16.0308V18.2693H45.386V13.4276ZM49.7438 13.4276H50.5644V17.5946H52.8348V13.4276H53.6554V17.5946H54.1843V19.6416H53.5095V18.2693H49.7438V13.4276ZM55.337 13.4276H56.1577V17.1204L58.4326 13.4276H59.3171V18.2693H58.4964V14.5993L56.2215 18.2693H55.337V13.4276ZM64.6186 13.4276V18.2693H63.8025V16.3819H63.3283C63.0396 16.3819 62.8238 16.4198 62.681 16.4958C62.5412 16.5688 62.336 16.8074 62.0655 17.2116L61.3497 18.2693H60.3331L61.2175 16.9654C61.488 16.5673 61.757 16.3423 62.0245 16.2907C61.5564 16.2268 61.2084 16.0582 60.9805 15.7846C60.7555 15.5111 60.6431 15.1965 60.6431 14.8409C60.6431 14.4215 60.7905 14.0811 61.0853 13.8197C61.3832 13.5583 61.8132 13.4276 62.3755 13.4276H64.6186ZM63.8025 14.1069H62.6354C62.146 14.1069 61.8299 14.1829 61.6871 14.3349C61.5473 14.4868 61.4774 14.6646 61.4774 14.8683C61.4774 15.157 61.5807 15.3697 61.7874 15.5065C61.9971 15.6403 62.3664 15.7071 62.8952 15.7071H63.8025V14.1069Z" fill="#1C1C1E" fill-opacity="0.75"/>
</g>
<defs>
<filter id="filter0_b_663_349" x="-16" y="-16" width="108" height="62" filterUnits="userSpaceOnUse" color-interpolation-filters="sRGB">
<feFlood flood-opacity="0" result="BackgroundImageFix"/>
<feGaussianBlur in="BackgroundImageFix" stdDeviation="8"/>
<feComposite in2="SourceAlpha" operator="in" result="effect1_backgroundBlur_663_349"/>
<feBlend mode="normal" in="SourceGraphic" in2="effect1_backgroundBlur_663_349" result="shape"/>
</filter>
<linearGradient id="paint0_linear_663_349" x1="13.422" y1="2.42477" x2="17.9962" y2="27.0831" gradientUnits="userSpaceOnUse">
<stop stop-color="#FF8730"/>
<stop offset="0.49664" stop-color="#FF3B30"/>
<stop offset="1" stop-color="#D3190F"/>
</linearGradient>
<radialGradient id="paint1_radial_663_349" cx="0" cy="0" r="1" gradientUnits="userSpaceOnUse" gradientTransform="translate(20.2115 16.0033) rotate(111.371) scale(11.9774 11.5248)">
<stop stop-color="#FF8730"/>
<stop offset="0.578125" stop-color="#FF3B30"/>
<stop offset="0.772064" stop-color="#DD261C"/>
<stop offset="1" stop-color="#BD140A"/>
</radialGradient>
<radialGradient id="paint2_radial_663_349" cx="0" cy="0" r="1" gradientUnits="userSpaceOnUse" gradientTransform="translate(19.1322 12.4634) rotate(62.85) scale(1.89301 2.95919)">
<stop stop-color="#FF8730"/>
<stop offset="0.822917" stop-color="#FF3B30"/>
<stop offset="1" stop-color="#FF3B30"/>
</radialGradient>
<clipPath id="clip0_663_349">
<rect width="76" height="30" fill="white"/>
</clipPath>
<clipPath id="clip1_663_349">
<rect width="24.0797" height="25.2173" fill="white" transform="translate(6.20544 1.93982)"/>
</clipPath>
</defs>
</svg>
