<svg width="76" height="30" viewBox="0 0 76 30" fill="none" xmlns="http://www.w3.org/2000/svg">
<g clip-path="url(#clip0_940_35054)">
<path d="M41.6736 17.6721C41.3697 17.9304 41.0764 18.1128 40.7937 18.2191C40.5141 18.3255 40.2132 18.3787 39.891 18.3787C39.3591 18.3787 38.9503 18.2495 38.6646 17.9912C38.3789 17.7298 38.2361 17.397 38.2361 16.9928C38.2361 16.7557 38.2893 16.5399 38.3956 16.3454C38.5051 16.1478 38.6464 15.9898 38.8196 15.8712C38.9959 15.7527 39.1935 15.663 39.4123 15.6023C39.5734 15.5597 39.8165 15.5187 40.1418 15.4792C40.8043 15.4001 41.2921 15.3059 41.6052 15.1965C41.6082 15.0841 41.6098 15.0126 41.6098 14.9822C41.6098 14.6479 41.5323 14.4124 41.3773 14.2756C41.1675 14.0902 40.856 13.9975 40.4427 13.9975C40.0567 13.9975 39.771 14.0659 39.5856 14.2026C39.4032 14.3364 39.2679 14.575 39.1798 14.9184L38.3774 14.809C38.4504 14.4655 38.5704 14.189 38.7376 13.9792C38.9047 13.7665 39.1464 13.6039 39.4625 13.4914C39.7786 13.3759 40.1448 13.3182 40.5612 13.3182C40.9745 13.3182 41.3104 13.3668 41.5687 13.4641C41.8271 13.5613 42.017 13.6844 42.1386 13.8334C42.2602 13.9792 42.3453 14.1647 42.3939 14.3896C42.4213 14.5294 42.4349 14.7816 42.4349 15.1464V16.2405C42.4349 17.0034 42.4517 17.4867 42.4851 17.6903C42.5216 17.8909 42.5915 18.0839 42.6948 18.2693H41.8377C41.7526 18.0991 41.6979 17.9 41.6736 17.6721ZM41.6052 15.8393C41.3073 15.9609 40.8606 16.0642 40.2648 16.1493C39.9275 16.198 39.6889 16.2527 39.5491 16.3135C39.4093 16.3743 39.3014 16.4639 39.2254 16.5825C39.1494 16.6979 39.1114 16.8271 39.1114 16.97C39.1114 17.1888 39.1935 17.3712 39.3576 17.5171C39.5248 17.6629 39.7679 17.7359 40.087 17.7359C40.4031 17.7359 40.6843 17.6675 40.9305 17.5307C41.1767 17.3909 41.3575 17.201 41.473 16.9609C41.5611 16.7755 41.6052 16.5019 41.6052 16.1402V15.8393Z" fill="#1C1C1E" fill-opacity="0.75"/>
<path d="M32.3556 16.3819L33.199 16.163C33.2628 16.4882 33.433 16.8134 33.7096 17.1387C33.9892 17.4639 34.3585 17.6265 34.8175 17.6265C35.2855 17.6265 35.6548 17.5064 35.9253 17.2663C36.1958 17.0262 36.3311 16.7359 36.3311 16.3955C36.3311 16.0278 36.1882 15.736 35.9025 15.5202C35.6168 15.3014 35.2278 15.1919 34.7354 15.1919H34.3114V14.4215C34.7187 14.4215 35.0302 14.3987 35.246 14.3531C35.4618 14.3045 35.6518 14.1844 35.8159 13.9929C35.9831 13.7984 36.0666 13.5781 36.0666 13.3319C36.0666 13.0401 35.9527 12.7863 35.7247 12.5705C35.4998 12.3547 35.1943 12.2468 34.8083 12.2468C34.471 12.2468 34.1822 12.3319 33.9421 12.5021C33.7051 12.6693 33.5409 12.8927 33.4498 13.1723C33.3586 13.4489 33.313 13.6556 33.313 13.7923L32.465 13.6009C32.6747 12.1815 33.4589 11.4718 34.8175 11.4718C35.4709 11.4718 35.9891 11.6541 36.3721 12.0189C36.755 12.3806 36.9465 12.8045 36.9465 13.2908C36.9465 13.9139 36.6517 14.3972 36.0621 14.7406C36.4025 14.8348 36.6867 15.0278 36.9146 15.3196C37.1456 15.6083 37.2611 15.9548 37.2611 16.3591C37.2611 16.9335 37.0377 17.4152 36.5909 17.8043C36.1472 18.1903 35.5575 18.3833 34.822 18.3833C33.5577 18.3833 32.7355 17.7161 32.3556 16.3819Z" fill="#1C1C1E" fill-opacity="0.75"/>
<path d="M67.9544 13.4276H68.7751V15.5202C69.0364 15.5202 69.2188 15.47 69.3221 15.3697C69.4285 15.2695 69.5835 14.9777 69.7872 14.4944C69.9483 14.1115 70.0789 13.8592 70.1792 13.7376C70.2795 13.616 70.395 13.534 70.5257 13.4914C70.6564 13.4489 70.8661 13.4276 71.1549 13.4276H71.319V14.1069L71.091 14.1023C70.8753 14.1023 70.737 14.1343 70.6762 14.1981C70.6123 14.2649 70.5151 14.464 70.3844 14.7953C70.2598 15.1114 70.1458 15.3302 70.0425 15.4518C69.9391 15.5734 69.7796 15.6843 69.5638 15.7846C69.9163 15.8788 70.2628 16.2071 70.6032 16.7694L71.5014 18.2693H70.5987L69.7233 16.7694C69.544 16.4685 69.3875 16.2709 69.2538 16.1767C69.12 16.0794 68.9605 16.0308 68.7751 16.0308V18.2693H67.9544V13.4276Z" fill="#1C1C1E" fill-opacity="0.75"/>
<path d="M62.9994 20.1339L62.9083 19.3635C63.0876 19.4121 63.2441 19.4364 63.3778 19.4364C63.5602 19.4364 63.7061 19.406 63.8155 19.3452C63.9249 19.2844 64.0146 19.1993 64.0845 19.0899C64.1362 19.0078 64.2197 18.8042 64.3352 18.479C64.3504 18.4334 64.3747 18.3665 64.4082 18.2784L62.5709 13.4276H63.4553L64.4629 16.2314C64.5936 16.587 64.7106 16.9608 64.8139 17.3529C64.9082 16.976 65.0206 16.6083 65.1513 16.2496L66.1862 13.4276H67.0068L65.165 18.3513C64.9674 18.8832 64.8139 19.2495 64.7045 19.4501C64.5586 19.7206 64.3915 19.9181 64.203 20.0427C64.0146 20.1704 63.7897 20.2342 63.5283 20.2342C63.3702 20.2342 63.194 20.2008 62.9994 20.1339Z" fill="#1C1C1E" fill-opacity="0.75"/>
<path d="M59.3757 13.4276H62.1612V14.1069H60.1963V18.2693H59.3757V13.4276Z" fill="#1C1C1E" fill-opacity="0.75"/>
<path d="M54.3113 13.4276H57.6849V17.5946H58.2092V19.6416H57.5345V18.2693H53.7231V19.6416H53.0484V17.5946H53.4815C54.059 16.8104 54.3356 15.4214 54.3113 13.4276ZM54.9951 14.1069C54.9343 15.6782 54.6912 16.8408 54.2657 17.5946H56.8689V14.1069H54.9951Z" fill="#1C1C1E" fill-opacity="0.75"/>
<path d="M51.3349 12.5295V11.5858H52.1555V12.5295H51.3349ZM51.3349 18.2693V13.4276H52.1555V18.2693H51.3349Z" fill="#1C1C1E" fill-opacity="0.75"/>
<path d="M46.12 13.4276H48.012C48.477 13.4276 48.822 13.4671 49.0469 13.5461C49.2749 13.6221 49.4694 13.7635 49.6305 13.9701C49.7946 14.1768 49.8767 14.4245 49.8767 14.7132C49.8767 14.9442 49.828 15.1464 49.7308 15.3196C49.6366 15.4898 49.4937 15.6327 49.3022 15.7481C49.5302 15.8241 49.7186 15.967 49.8675 16.1767C50.0195 16.3834 50.0955 16.6296 50.0955 16.9153C50.0651 17.3742 49.901 17.7146 49.6031 17.9365C49.3053 18.1584 48.8722 18.2693 48.3038 18.2693H46.12V13.4276ZM46.9406 15.4655H47.816C48.1655 15.4655 48.4056 15.4473 48.5363 15.4108C48.667 15.3743 48.784 15.3014 48.8874 15.1919C48.9907 15.0795 49.0424 14.9458 49.0424 14.7908C49.0424 14.5354 48.9512 14.3576 48.7688 14.2573C48.5895 14.157 48.281 14.1069 47.8433 14.1069H46.9406V15.4655ZM46.9406 17.5946H48.0211C48.4862 17.5946 48.8053 17.5414 48.9785 17.435C49.1518 17.3256 49.243 17.1386 49.2521 16.8742C49.2521 16.7192 49.2019 16.5764 49.1016 16.4457C49.0013 16.3119 48.8706 16.2284 48.7096 16.1949C48.5485 16.1585 48.2901 16.1402 47.9345 16.1402H46.9406V17.5946Z" fill="#1C1C1E" fill-opacity="0.75"/>
<path d="M16.567 18.0569L9.14175 13.6553L24.3479 13.2995L16.567 18.0569Z" fill="white"/>
<path fill-rule="evenodd" clip-rule="evenodd" d="M16.5519 17.207L23.368 13.4239C23.7463 13.2139 24.206 13.2135 24.5847 13.4228L27.0754 14.7994C27.3656 14.9425 27.6309 15.1318 27.8608 15.3599C28.1417 15.6386 28.2748 16.0335 28.2199 16.4254C28.1651 16.8173 27.9286 17.1604 27.5819 17.3512L25.1108 18.7113C25.1357 18.8102 25.1487 18.9129 25.1487 19.0175V21.9365C25.2022 22.5614 25.0626 23.1883 24.748 23.7322C24.4312 24.2801 23.9527 24.716 23.3789 24.9806L18.1852 27.8381C18.1705 27.8471 18.1554 27.8559 18.1399 27.8643L17.0163 28.4796C16.727 28.6379 16.3769 28.6378 16.0878 28.4791L15.207 27.9958C15.2041 27.9944 15.2012 27.9929 15.1983 27.9914C15.188 27.9861 15.1777 27.9806 15.1675 27.975L9.72494 24.9806C9.15115 24.716 8.67271 24.2801 8.35584 23.7322C8.0412 23.1883 7.90175 22.5613 7.95524 21.9365V19.0175C7.95524 18.9129 7.96824 18.8103 7.99309 18.7114L5.52186 17.3512C5.17517 17.1604 4.93874 16.8173 4.88385 16.4254C4.82897 16.0335 4.96205 15.6386 5.24298 15.3599C5.47289 15.1318 5.73816 14.9425 6.02842 14.7994L8.51913 13.4228C8.89779 13.2135 9.35753 13.2139 9.73582 13.4239L16.5519 17.207Z" fill="white"/>
<path fill-rule="evenodd" clip-rule="evenodd" d="M15.1054 18.9071L16.0706 18.3759L9.12648 14.5217L6.60663 15.9144C6.42898 15.9988 6.26692 16.1127 6.12729 16.2512L9.21069 17.9484L9.21082 17.9485V17.9486L13.0326 20.0474L15.1055 18.9073L15.1052 18.9072L15.1054 18.9071ZM13.0326 21.1227L13.4861 20.8701L16.0707 19.4515V26.9915C15.9677 26.9629 15.8678 26.9238 15.7727 26.8749L10.2861 23.8563C9.93177 23.702 9.63621 23.4382 9.4427 23.1036C9.24919 22.769 9.16794 22.3813 9.21082 21.9972V19.0175L12.5792 20.8701L13.0326 21.1227ZM17.9983 18.9073L20.0712 20.0474L23.8931 17.9486V17.9484L26.9765 16.2512C26.8369 16.1127 26.6748 15.9988 26.4971 15.9144L23.9773 14.5217L17.0332 18.3759L17.9984 18.9071L17.9986 18.9072L17.9983 18.9073ZM17.0332 19.4515V26.9915C17.1362 26.9629 17.2361 26.9238 17.3311 26.8749L22.8178 23.8563C23.1721 23.702 23.4677 23.4382 23.6612 23.1036C23.8547 22.769 23.936 22.3813 23.8931 21.9972V19.0175L20.5247 20.8701L20.0712 21.1227L19.6178 20.8701L17.0332 19.4515Z" fill="url(#paint0_linear_940_35054)"/>
<rect x="2.54271" y="2.97992" width="27.9581" height="10.914" rx="5.45698" fill="#E00028"/>
<rect x="2.54271" y="2.97992" width="27.9581" height="10.914" rx="5.45698" stroke="white" stroke-width="1.25559"/>
<path d="M5.74945 7.90094H7.02444V6.61929H8.09968V7.90094H9.38133V8.97951H8.09968V10.2545H7.02444V8.97951H5.74945V7.90094Z" fill="white"/>
<path d="M14.6544 8.41692C14.6544 7.48926 14.8208 6.84011 15.1537 6.46949C15.4888 6.09887 15.9982 5.91356 16.6817 5.91356C17.0102 5.91356 17.2798 5.95462 17.4906 6.03673C17.7015 6.11662 17.8735 6.22204 18.0066 6.35298C18.1398 6.4817 18.2441 6.61818 18.3195 6.76244C18.3972 6.90447 18.4593 7.07092 18.506 7.26178C18.5969 7.62574 18.6424 8.00524 18.6424 8.40028C18.6424 9.28578 18.4926 9.93381 18.193 10.3444C17.8934 10.7549 17.3774 10.9602 16.6451 10.9602C16.2345 10.9602 15.9027 10.8948 15.6497 10.7638C15.3967 10.6329 15.1892 10.4409 15.0272 10.1879C14.9096 10.0082 14.8175 9.76292 14.7509 9.45222C14.6865 9.1393 14.6544 8.7942 14.6544 8.41692ZM15.9993 8.42025C15.9993 9.04165 16.0536 9.46665 16.1624 9.69524C16.2733 9.9216 16.4331 10.0348 16.6417 10.0348C16.7793 10.0348 16.8981 9.98707 16.9979 9.89164C17.1 9.794 17.1744 9.64086 17.221 9.43225C17.2698 9.22364 17.2942 8.89851 17.2942 8.45687C17.2942 7.80884 17.2387 7.37385 17.1278 7.15193C17.019 6.92778 16.8548 6.8157 16.6351 6.8157C16.4109 6.8157 16.2489 6.93 16.1491 7.15858C16.0492 7.38495 15.9993 7.80551 15.9993 8.42025Z" fill="white"/>
<path d="M19.2017 8.41692C19.2017 7.48926 19.3682 6.84011 19.701 6.46949C20.0362 6.09887 20.5455 5.91356 21.229 5.91356C21.5575 5.91356 21.8271 5.95462 22.038 6.03673C22.2488 6.11662 22.4208 6.22204 22.5539 6.35298C22.6871 6.4817 22.7914 6.61818 22.8669 6.76244C22.9445 6.90447 23.0067 7.07092 23.0533 7.26178C23.1443 7.62574 23.1898 8.00524 23.1898 8.40028C23.1898 9.28578 23.04 9.93381 22.7404 10.3444C22.4408 10.7549 21.9248 10.9602 21.1924 10.9602C20.7818 10.9602 20.4501 10.8948 20.1971 10.7638C19.9441 10.6329 19.7366 10.4409 19.5745 10.1879C19.4569 10.0082 19.3648 9.76292 19.2982 9.45222C19.2339 9.1393 19.2017 8.7942 19.2017 8.41692ZM20.5466 8.42025C20.5466 9.04165 20.601 9.46665 20.7097 9.69524C20.8207 9.9216 20.9805 10.0348 21.1891 10.0348C21.3267 10.0348 21.4454 9.98707 21.5453 9.89164C21.6474 9.794 21.7217 9.64086 21.7683 9.43225C21.8171 9.22364 21.8416 8.89851 21.8416 8.45687C21.8416 7.80884 21.7861 7.37385 21.6751 7.15193C21.5664 6.92778 21.4021 6.8157 21.1824 6.8157C20.9583 6.8157 20.7963 6.93 20.6964 7.15858C20.5965 7.38495 20.5466 7.80551 20.5466 8.42025Z" fill="white"/>
<path d="M25.4806 10.9452C25.1125 10.9452 24.8057 10.8906 24.5602 10.7816C24.3148 10.6679 24.1307 10.5089 24.008 10.3043C23.8853 10.0953 23.8239 9.84754 23.8239 9.5612C23.8239 9.49757 23.8262 9.43621 23.8307 9.37712C23.8398 9.31349 23.8535 9.25213 23.8717 9.19305H23.5376V8.68854H24.1307C24.1716 8.63854 24.2171 8.59309 24.2671 8.55218C24.3171 8.50673 24.3693 8.46355 24.4239 8.42265C24.483 8.38174 24.5443 8.34311 24.608 8.30675C24.6716 8.26584 24.7375 8.22948 24.8057 8.19767H23.5376V7.69316H25.8147C25.8738 7.63862 25.917 7.57726 25.9442 7.50908C25.976 7.43636 25.9919 7.35455 25.9919 7.26364C25.9919 7.16365 25.9669 7.07957 25.917 7.01139C25.8715 6.94321 25.8033 6.89094 25.7124 6.85458C25.6215 6.81822 25.5079 6.80004 25.3715 6.80004C25.2488 6.80004 25.1261 6.81141 25.0034 6.83413C24.8852 6.85686 24.7602 6.88867 24.6284 6.92958C24.4966 6.97048 24.3557 7.02275 24.2057 7.08638L23.8989 6.2819C24.1353 6.17736 24.3807 6.09555 24.6352 6.03646C24.8943 5.97283 25.167 5.94102 25.4534 5.94102C25.7715 5.94102 26.0442 5.99328 26.2715 6.09782C26.5033 6.19781 26.6828 6.3478 26.8101 6.54779C26.9373 6.74777 27.001 6.99321 27.001 7.2841C27.001 7.35682 26.9964 7.42727 26.9873 7.49545C26.9782 7.56362 26.9646 7.62953 26.9464 7.69316H27.2941V8.19767H26.6601C26.6101 8.25221 26.5533 8.30448 26.4896 8.35447C26.4306 8.39992 26.3669 8.4431 26.2987 8.48401C26.2351 8.52037 26.1669 8.55673 26.0942 8.59309C26.026 8.62491 25.9556 8.65672 25.8829 8.68854H27.2941V9.19305H24.9625C24.917 9.24304 24.8829 9.29986 24.8602 9.36349C24.842 9.42257 24.8329 9.48848 24.8329 9.5612C24.8329 9.67028 24.8579 9.76573 24.9079 9.84754C24.9625 9.92481 25.042 9.98617 25.1466 10.0316C25.2556 10.0725 25.3874 10.093 25.542 10.093C25.7874 10.093 26.0283 10.0657 26.2647 10.0112C26.501 9.95208 26.7373 9.87481 26.9737 9.77937V10.6384C26.7783 10.7338 26.5533 10.8088 26.2987 10.8634C26.0442 10.9179 25.7715 10.9452 25.4806 10.9452Z" fill="white"/>
<path d="M11.4596 7.41216L10.1828 7.18334C10.2889 6.77654 10.4923 6.46481 10.793 6.24815C11.0959 6.03149 11.5237 5.92316 12.0764 5.92316C12.7109 5.92316 13.1696 6.04144 13.4526 6.278C13.7356 6.51456 13.8771 6.81192 13.8771 7.17007C13.8771 7.3801 13.8196 7.57024 13.7047 7.74047C13.5897 7.91071 13.4162 8.05994 13.184 8.18817C13.3719 8.2346 13.5156 8.28876 13.6151 8.35067C13.7765 8.45015 13.9014 8.5817 13.9899 8.7453C14.0805 8.90669 14.1258 9.10014 14.1258 9.32565C14.1258 9.60864 14.0518 9.88057 13.9036 10.1415C13.7555 10.4001 13.5422 10.6002 13.2636 10.7417C12.985 10.881 12.6191 10.9506 12.1659 10.9506C11.7238 10.9506 11.3744 10.8987 11.118 10.7948C10.8637 10.6908 10.6537 10.5394 10.4879 10.3404C10.3243 10.1392 10.1983 9.88721 10.1098 9.58432L11.4596 9.40524C11.5126 9.67717 11.5944 9.8662 11.705 9.97232C11.8177 10.0762 11.9603 10.1282 12.1328 10.1282C12.314 10.1282 12.4644 10.0619 12.5838 9.92921C12.7054 9.79656 12.7662 9.61969 12.7662 9.39861C12.7662 9.1731 12.7076 8.99844 12.5904 8.87464C12.4754 8.75083 12.3185 8.68893 12.1195 8.68893C12.0134 8.68893 11.8675 8.71546 11.6817 8.76852L11.7514 7.80348C11.8266 7.81454 11.8851 7.82006 11.9271 7.82006C12.104 7.82006 12.251 7.76369 12.3682 7.65093C12.4876 7.53818 12.5473 7.40442 12.5473 7.24966C12.5473 7.10154 12.5031 6.98326 12.4146 6.89482C12.3262 6.80639 12.2046 6.76217 12.0499 6.76217C11.8907 6.76217 11.7613 6.81081 11.6618 6.90809C11.5624 7.00316 11.4949 7.17118 11.4596 7.41216Z" fill="white"/>
</g>
<defs>
<linearGradient id="paint0_linear_940_35054" x1="16.5519" y1="14.5217" x2="16.5519" y2="26.9915" gradientUnits="userSpaceOnUse">
<stop stop-color="#0E0E0E" stop-opacity="0.6"/>
<stop offset="1" stop-color="#151515"/>
</linearGradient>
<clipPath id="clip0_940_35054">
<rect width="76" height="30" fill="white"/>
</clipPath>
</defs>
</svg>
