<?xml version="1.0" encoding="UTF-8"?>
<!-- Generator: visioncortex VTracer 0.6.3 -->
<svg version="1.1" xmlns="http://www.w3.org/2000/svg" width="1280" height="1280">
<path d="M0 0 C2.12 -0 4.24 -0.01 6.35 -0.01 C12.06 -0.02 17.77 -0.02 23.48 -0.02 C27.06 -0.02 30.64 -0.02 34.23 -0.03 C46.76 -0.04 59.3 -0.04 71.84 -0.04 C83.46 -0.04 95.07 -0.05 106.69 -0.07 C116.72 -0.08 126.75 -0.08 136.78 -0.08 C142.74 -0.08 148.71 -0.09 154.67 -0.1 C200.56 -0.17 200.56 -0.17 221.25 1.95 C226.36 2.4 231.48 2.37 236.62 2.27 C237.6 2.26 238.58 2.25 239.59 2.24 C241.89 2.22 244.19 2.19 246.49 2.15 C246.49 2.48 246.49 2.81 246.49 3.15 C247.39 3.18 247.39 3.18 248.31 3.22 C251.02 3.34 253.72 3.46 256.43 3.58 C257.85 3.64 257.85 3.64 259.3 3.7 C260.19 3.74 261.09 3.79 262.02 3.83 C263.27 3.88 263.27 3.88 264.54 3.94 C266.49 4.15 266.49 4.15 267.49 5.15 C270.02 5.22 272.53 5.24 275.06 5.21 C275.77 5.2 276.48 5.2 277.21 5.19 C278.97 5.18 280.73 5.16 282.49 5.15 C282.49 5.48 282.49 5.81 282.49 6.15 C283.97 6.24 283.97 6.24 285.48 6.33 C286.77 6.41 288.05 6.5 289.37 6.58 C290.64 6.66 291.92 6.75 293.23 6.83 C296.49 7.15 296.49 7.15 298.49 8.15 C299.65 8.15 300.8 8.15 301.99 8.15 C305.49 8.15 305.49 8.15 307.49 9.15 C309.32 9.33 311.16 9.47 312.99 9.58 C317.8 9.94 322.35 10.65 327.06 11.68 C329.58 12.16 332.06 12.43 334.62 12.65 C338.39 12.97 341.84 13.67 345.48 14.67 C348.43 15.37 351.4 15.63 354.41 15.9 C357.67 16.28 360.67 17.2 363.81 18.15 C367.43 19.21 367.43 19.21 370.99 19.65 C374.63 20.17 377.97 21.1 381.49 22.15 C383.16 22.48 384.83 22.81 386.49 23.15 C397.94 25.74 409.36 28.38 420.49 32.15 C423.41 33.13 426.33 34.1 429.24 35.08 C430.36 35.46 430.36 35.46 431.51 35.85 C435.4 37.15 439.3 38.38 443.25 39.51 C449.56 41.39 455.6 43.89 461.68 46.4 C462.88 46.89 464.08 47.38 465.32 47.89 C473.83 51.41 482.26 55.01 490.49 59.15 C491.38 59.59 492.27 60.04 493.18 60.49 C496.23 62.03 499.27 63.59 502.31 65.15 C503.74 65.88 503.74 65.88 505.2 66.62 C510.85 69.56 516.05 72.78 521.18 76.56 C524.39 78.76 527.8 80.36 531.31 82.02 C534.01 83.41 536.19 85.17 538.49 87.15 C539.64 87.83 539.64 87.83 540.81 88.52 C544.57 90.8 547.99 93.48 551.49 96.15 C552.72 97.06 553.95 97.98 555.18 98.9 C558.88 101.67 562.56 104.47 566.24 107.27 C566.8 107.69 567.35 108.11 567.93 108.54 C571.01 110.9 573.77 113.39 576.49 116.15 C577.48 116.81 578.47 117.47 579.49 118.15 C579.49 118.81 579.49 119.47 579.49 120.15 C580.04 120.37 580.6 120.6 581.16 120.83 C584.18 122.53 586.3 124.69 588.74 127.15 C590.08 128.48 590.08 128.48 591.45 129.83 C593.49 132.15 593.49 132.15 593.49 134.15 C594.32 134.49 594.32 134.49 595.16 134.83 C598.18 136.53 600.3 138.69 602.74 141.15 C604.08 142.48 604.08 142.48 605.45 143.83 C607.49 146.15 607.49 146.15 607.49 148.15 C608.48 148.48 609.47 148.81 610.49 149.15 C611.44 150.56 612.38 151.99 613.28 153.43 C614.57 155.26 615.98 156.63 617.62 158.15 C622.6 162.97 626.35 168.76 630.29 174.44 C631.96 176.81 633.7 179.13 635.43 181.46 C646.2 196.25 655.42 212 663.85 228.21 C665.9 232.13 667.98 236.01 670.17 239.85 C672.05 243.21 673.37 246.45 674.49 250.15 C675.39 252.26 676.31 254.36 677.24 256.46 C679.86 262.44 682.1 268.5 684.23 274.66 C686.21 280.39 688.31 286.06 690.49 291.71 C692.05 295.8 693.33 299.92 694.49 304.15 C694.8 305.17 695.11 306.2 695.42 307.26 C697.6 314.61 699.38 321.97 700.99 329.46 C702.01 334.15 703.19 338.74 704.56 343.33 C707.35 352.8 709.35 362.41 710.25 372.25 C710.48 374.42 710.48 374.42 711.49 377.52 C712.6 381.52 712.9 385.27 713.21 389.39 C713.47 391.88 713.89 394.16 714.49 396.58 C715.63 401.24 715.95 405.87 716.25 410.64 C716.34 413.14 716.34 413.14 717.49 415.15 C717.7 417.02 717.86 418.9 717.99 420.77 C718.08 421.89 718.16 423.01 718.24 424.16 C718.41 426.53 718.58 428.9 718.74 431.27 C718.83 432.38 718.91 433.5 718.99 434.65 C719.06 435.68 719.14 436.71 719.21 437.77 C719.24 440.1 719.24 440.1 720.49 441.15 C720.71 443.64 720.87 446.11 720.99 448.61 C721.03 449.36 721.07 450.11 721.12 450.88 C721.25 453.28 721.37 455.68 721.49 458.08 C721.65 461.24 721.82 464.39 721.99 467.55 C722.03 468.28 722.06 469.01 722.1 469.76 C722.26 473.58 722.26 473.58 723.49 477.15 C723.63 478.73 723.71 480.32 723.76 481.91 C723.79 482.9 723.83 483.89 723.86 484.92 C723.89 486 723.92 487.08 723.96 488.19 C724.04 490.48 724.11 492.78 724.19 495.07 C724.31 498.68 724.43 502.3 724.54 505.91 C724.65 509.4 724.77 512.89 724.9 516.38 C724.93 517.43 724.96 518.48 724.99 519.57 C725.18 525.07 725.65 530.4 726.5 535.84 C727.81 545.04 727.77 554.18 727.75 563.45 C727.75 565.34 727.76 567.24 727.76 569.13 C727.77 574.22 727.77 579.32 727.76 584.41 C727.76 589.77 727.76 595.13 727.76 600.48 C727.77 609.47 727.76 618.46 727.75 627.45 C727.74 637.81 727.75 648.18 727.76 658.54 C727.77 667.48 727.77 676.41 727.76 685.34 C727.76 690.66 727.76 695.98 727.77 701.3 C727.77 706.3 727.77 711.31 727.76 716.31 C727.75 718.13 727.75 719.96 727.76 721.79 C727.78 730.79 727.61 739.45 725.96 748.35 C725.09 753.58 725.04 758.86 724.9 764.16 C724.84 765.92 724.84 765.92 724.78 767.72 C724.65 771.42 724.54 775.13 724.43 778.83 C724.31 782.58 724.2 786.32 724.07 790.06 C724 792.38 723.93 794.7 723.86 797.02 C723.83 798.06 723.79 799.1 723.76 800.17 C723.72 801.54 723.72 801.54 723.68 802.94 C723.49 805.15 723.49 805.15 722.49 807.15 C722.28 809.6 722.12 812.03 721.99 814.49 C721.95 815.21 721.91 815.94 721.87 816.69 C721.74 819.01 721.62 821.33 721.49 823.65 C721.33 826.7 721.16 829.75 720.99 832.8 C720.96 833.51 720.92 834.21 720.89 834.94 C720.61 839.92 720.61 839.92 719.49 842.15 C719.28 843.93 719.12 845.73 718.99 847.52 C718.87 849.12 718.87 849.12 718.74 850.75 C718.66 851.87 718.58 852.99 718.49 854.15 C718.33 856.35 718.16 858.56 717.99 860.77 C717.92 861.75 717.85 862.73 717.77 863.75 C717.49 866.15 717.49 866.15 716.49 868.15 C716.29 869.64 716.13 871.14 715.99 872.65 C715.91 873.53 715.83 874.42 715.74 875.33 C715.66 876.26 715.58 877.19 715.49 878.15 C715.33 879.98 715.16 881.81 714.99 883.65 C714.92 884.46 714.85 885.27 714.77 886.11 C714.49 888.15 714.49 888.15 713.49 890.15 C713.12 892.81 712.79 895.47 712.49 898.15 C711.63 905.87 711.63 905.87 710.49 908.15 C710.17 910.31 709.89 912.48 709.62 914.65 C708.9 919.87 707.85 924.64 706.22 929.64 C705.12 933.43 704.58 937.29 704.02 941.19 C703.41 944.6 702.47 947.82 701.49 951.15 C700.8 953.81 700.15 956.48 699.49 959.15 C697.38 967.77 694.86 976.22 692.06 984.65 C691.76 985.56 691.46 986.47 691.15 987.41 C689.84 991.34 688.51 995.23 686.85 999.03 C685.76 1001.53 684.93 1003.83 684.24 1006.46 C682.78 1011.5 680.95 1016.38 679.06 1021.27 C678.77 1022.02 678.48 1022.77 678.18 1023.55 C676.49 1027.87 674.61 1032.03 672.49 1036.16 C671.48 1038.16 670.53 1040.18 669.6 1042.22 C665.65 1050.83 661.45 1059.06 656.49 1067.15 C654.96 1069.68 653.45 1072.22 651.98 1074.8 C647.57 1082.57 642.66 1089.86 637.49 1097.15 C636.16 1099.04 634.82 1100.94 633.49 1102.83 C632.94 1103.62 632.38 1104.41 631.81 1105.22 C630.46 1107.11 630.46 1107.11 629.49 1109.15 C628.83 1109.15 628.17 1109.15 627.49 1109.15 C627.09 1110.01 627.09 1110.01 626.68 1110.89 C625.45 1113.22 624.04 1115.18 622.43 1117.27 C620.26 1120.08 620.26 1120.08 618.49 1123.15 C617.83 1123.15 617.17 1123.15 616.49 1123.15 C616.16 1124.14 615.83 1125.13 615.49 1126.15 C614.83 1126.15 614.17 1126.15 613.49 1126.15 C613.16 1127.14 612.83 1128.13 612.49 1129.15 C611.83 1129.15 611.17 1129.15 610.49 1129.15 C610.29 1129.83 610.09 1130.52 609.88 1131.23 C608.02 1135.14 605.37 1137.7 602.31 1140.72 C601.7 1141.34 601.09 1141.95 600.47 1142.58 C599.18 1143.87 597.89 1145.15 596.6 1146.43 C594.62 1148.39 592.66 1150.37 590.7 1152.35 C589.45 1153.6 588.19 1154.85 586.94 1156.1 C586.35 1156.69 585.77 1157.28 585.16 1157.89 C580.94 1162.05 580.94 1162.05 578.37 1162.62 C577.75 1162.79 577.13 1162.97 576.49 1163.15 C576.16 1164.14 575.83 1165.13 575.49 1166.15 C574.83 1166.15 574.17 1166.15 573.49 1166.15 C573.16 1167.14 572.83 1168.13 572.49 1169.15 C571.83 1169.15 571.17 1169.15 570.49 1169.15 C570.49 1169.81 570.49 1170.47 570.49 1171.15 C569.08 1172.12 567.67 1173.08 566.22 1173.99 C564.44 1175.18 562.86 1176.49 561.24 1177.9 C558.49 1180.15 558.49 1180.15 556.49 1180.15 C556.49 1180.81 556.49 1181.47 556.49 1182.15 C554.52 1183.55 552.54 1184.85 550.49 1186.15 C548.43 1187.58 546.37 1189.02 544.31 1190.46 C538.47 1194.52 532.52 1198.38 526.49 1202.15 C525.48 1202.79 525.48 1202.79 524.45 1203.44 C522.48 1204.69 520.49 1205.92 518.49 1207.15 C517.65 1207.67 516.8 1208.19 515.93 1208.73 C508.06 1213.46 499.92 1217.36 491.59 1221.18 C489.64 1222.08 487.71 1223 485.77 1223.93 C478.67 1227.33 471.49 1230.45 464.18 1233.4 C463.37 1233.72 462.56 1234.05 461.72 1234.39 C456.81 1236.34 451.89 1237.99 446.81 1239.43 C444.37 1240.18 442.04 1241.1 439.68 1242.08 C429.11 1246.43 417.89 1249.35 406.81 1252.08 C405.39 1252.43 403.97 1252.79 402.55 1253.14 C401.86 1253.31 401.17 1253.48 400.46 1253.66 C398.73 1254.09 397 1254.53 395.28 1254.97 C388.78 1256.62 382.25 1258.08 375.68 1259.45 C373.16 1260 370.67 1260.6 368.18 1261.27 C364.68 1262.1 361.35 1262.52 357.78 1262.86 C355.46 1263.15 353.26 1263.61 350.99 1264.15 C347.26 1265.02 343.61 1265.49 339.8 1265.86 C337.38 1266.16 335.06 1266.63 332.68 1267.15 C327.79 1268.18 322.94 1268.58 317.96 1268.9 C315.49 1269 315.49 1269 313.49 1270.15 C311.71 1270.35 309.91 1270.51 308.12 1270.65 C306.52 1270.77 306.52 1270.77 304.88 1270.9 C302.62 1271.06 300.36 1271.23 298.1 1271.4 C296.5 1271.52 296.5 1271.52 294.87 1271.65 C293.89 1271.72 292.9 1271.79 291.89 1271.86 C289.48 1272.01 289.48 1272.01 287.49 1273.15 C285.04 1273.36 282.61 1273.52 280.15 1273.65 C279.42 1273.69 278.7 1273.73 277.95 1273.77 C274.85 1273.94 271.74 1274.11 268.63 1274.27 C266.37 1274.39 264.1 1274.52 261.84 1274.65 C261.13 1274.68 260.43 1274.72 259.7 1274.75 C255.97 1274.92 255.97 1274.92 252.49 1276.15 C250.72 1276.29 248.93 1276.37 247.15 1276.43 C246.09 1276.46 245.03 1276.5 243.93 1276.54 C242.82 1276.57 241.7 1276.61 240.56 1276.65 C238.36 1276.71 236.16 1276.79 233.97 1276.86 C232.99 1276.89 232.01 1276.92 231 1276.96 C228.37 1277.05 228.37 1277.05 225.49 1278.15 C223.16 1278.29 220.82 1278.37 218.48 1278.43 C217.79 1278.44 217.11 1278.46 216.4 1278.48 C214.2 1278.54 212 1278.59 209.81 1278.65 C207.63 1278.7 205.44 1278.75 203.26 1278.81 C201.27 1278.86 199.28 1278.91 197.29 1278.96 C193.5 1279.09 193.5 1279.09 189.78 1279.65 C185.55 1280.19 181.4 1280.29 177.14 1280.27 C176.34 1280.27 175.54 1280.28 174.71 1280.28 C172.05 1280.28 169.38 1280.28 166.72 1280.27 C164.8 1280.28 162.88 1280.28 160.96 1280.28 C155.76 1280.28 150.57 1280.28 145.37 1280.28 C139.92 1280.28 134.47 1280.28 129.03 1280.28 C119.88 1280.28 110.73 1280.28 101.59 1280.28 C91.02 1280.27 80.46 1280.27 69.89 1280.28 C60.81 1280.28 51.73 1280.28 42.65 1280.28 C37.23 1280.28 31.81 1280.28 26.39 1280.28 C21.3 1280.28 16.2 1280.28 11.11 1280.28 C9.24 1280.28 7.37 1280.28 5.5 1280.28 C2.95 1280.28 0.4 1280.28 -2.16 1280.27 C-3.26 1280.28 -3.26 1280.28 -4.38 1280.28 C-9.17 1280.26 -13.76 1279.79 -18.51 1279.15 C-21.06 1279.02 -23.62 1278.92 -26.18 1278.86 C-27.6 1278.83 -29.02 1278.79 -30.44 1278.75 C-32.64 1278.7 -34.85 1278.64 -37.05 1278.59 C-39.2 1278.54 -41.35 1278.48 -43.5 1278.43 C-45.41 1278.38 -45.41 1278.38 -47.36 1278.33 C-50.51 1278.15 -50.51 1278.15 -53.51 1277.15 C-55.33 1277.01 -57.15 1276.92 -58.98 1276.86 C-60.58 1276.81 -60.58 1276.81 -62.2 1276.75 C-64.45 1276.68 -66.7 1276.61 -68.95 1276.54 C-70.54 1276.48 -70.54 1276.48 -72.17 1276.43 C-73.63 1276.38 -73.63 1276.38 -75.12 1276.33 C-77.51 1276.15 -77.51 1276.15 -79.51 1275.15 C-81.96 1274.93 -84.39 1274.77 -86.85 1274.65 C-87.58 1274.6 -88.3 1274.56 -89.05 1274.52 C-91.37 1274.39 -93.69 1274.27 -96.01 1274.15 C-99.06 1273.98 -102.11 1273.82 -105.16 1273.65 C-106.22 1273.59 -106.22 1273.59 -107.3 1273.54 C-112.28 1273.26 -112.28 1273.26 -114.51 1272.15 C-116.29 1271.94 -118.09 1271.78 -119.88 1271.65 C-120.95 1271.56 -122.02 1271.48 -123.12 1271.4 C-124.24 1271.31 -125.35 1271.23 -126.51 1271.15 C-128.72 1270.98 -130.92 1270.82 -133.13 1270.65 C-134.11 1270.57 -135.1 1270.5 -136.11 1270.43 C-138.51 1270.15 -138.51 1270.15 -140.51 1269.15 C-142 1268.94 -143.5 1268.78 -145.01 1268.65 C-146.34 1268.52 -146.34 1268.52 -147.69 1268.4 C-148.62 1268.31 -149.55 1268.23 -150.51 1268.15 C-152.34 1267.98 -154.17 1267.82 -156.01 1267.65 C-156.82 1267.57 -157.64 1267.5 -158.48 1267.43 C-160.51 1267.15 -160.51 1267.15 -162.51 1266.15 C-165.17 1265.78 -167.83 1265.44 -170.51 1265.15 C-178.24 1264.28 -178.24 1264.28 -180.51 1263.15 C-182.67 1262.83 -184.84 1262.54 -187.01 1262.27 C-192.23 1261.56 -197.01 1260.51 -202 1258.87 C-205.8 1257.77 -209.65 1257.23 -213.55 1256.67 C-216.96 1256.06 -220.19 1255.12 -223.51 1254.15 C-226.17 1253.45 -228.84 1252.8 -231.51 1252.15 C-240.14 1250.03 -248.58 1247.52 -257.01 1244.71 C-257.92 1244.41 -258.83 1244.11 -259.77 1243.8 C-263.71 1242.49 -267.59 1241.16 -271.39 1239.5 C-273.89 1238.41 -276.2 1237.59 -278.82 1236.9 C-283.86 1235.43 -288.74 1233.6 -293.63 1231.71 C-294.38 1231.42 -295.14 1231.13 -295.91 1230.83 C-300.24 1229.14 -304.39 1227.26 -308.52 1225.15 C-310.53 1224.14 -312.55 1223.19 -314.59 1222.25 C-323.19 1218.3 -331.42 1214.1 -339.51 1209.15 C-342.04 1207.61 -344.59 1206.1 -347.16 1204.64 C-354.93 1200.22 -362.23 1195.31 -369.51 1190.15 C-371.4 1188.81 -373.3 1187.48 -375.19 1186.15 C-376.38 1185.31 -376.38 1185.31 -377.58 1184.46 C-379.47 1183.11 -379.47 1183.11 -381.51 1182.15 C-381.51 1181.49 -381.51 1180.83 -381.51 1180.15 C-382.08 1179.88 -382.66 1179.61 -383.25 1179.34 C-385.58 1178.1 -387.55 1176.7 -389.63 1175.08 C-392.44 1172.91 -392.44 1172.91 -395.51 1171.15 C-395.51 1170.49 -395.51 1169.83 -395.51 1169.15 C-396.5 1168.82 -397.49 1168.49 -398.51 1168.15 C-398.51 1167.49 -398.51 1166.83 -398.51 1166.15 C-399.5 1165.82 -400.49 1165.49 -401.51 1165.15 C-401.51 1164.49 -401.51 1163.83 -401.51 1163.15 C-402.19 1162.95 -402.88 1162.75 -403.58 1162.55 C-407.59 1160.63 -410.23 1157.85 -413.34 1154.71 C-414.29 1153.76 -414.29 1153.76 -415.27 1152.79 C-416.61 1151.45 -417.94 1150.11 -419.27 1148.77 C-421.32 1146.71 -423.38 1144.66 -425.44 1142.62 C-426.74 1141.32 -428.04 1140.02 -429.34 1138.71 C-429.96 1138.1 -430.58 1137.49 -431.21 1136.86 C-435.51 1132.49 -435.51 1132.49 -435.51 1129.15 C-436.5 1128.82 -437.49 1128.49 -438.51 1128.15 C-438.51 1127.49 -438.51 1126.83 -438.51 1126.15 C-439.5 1125.82 -440.49 1125.49 -441.51 1125.15 C-441.51 1124.49 -441.51 1123.83 -441.51 1123.15 C-442.17 1123.15 -442.83 1123.15 -443.51 1123.15 C-444.48 1121.74 -445.44 1120.32 -446.35 1118.87 C-447.54 1117.09 -448.85 1115.51 -450.26 1113.9 C-452.51 1111.15 -452.51 1111.15 -452.51 1109.15 C-453.17 1109.15 -453.83 1109.15 -454.51 1109.15 C-455.42 1107.84 -456.33 1106.52 -457.18 1105.18 C-458.82 1102.66 -460.6 1100.25 -462.38 1097.83 C-467.85 1090.33 -472.8 1082.86 -477.11 1074.63 C-478.43 1072.29 -479.89 1070.28 -481.51 1068.15 C-491.44 1051.38 -499.32 1033.36 -506.62 1015.34 C-507.23 1013.84 -507.84 1012.34 -508.46 1010.84 C-511.21 1004.11 -513.59 997.29 -515.88 990.4 C-516.27 989.22 -516.67 988.05 -517.07 986.83 C-520.62 976.04 -523.69 965.15 -526.51 954.15 C-526.84 952.87 -527.16 951.6 -527.5 950.29 C-528.61 945.93 -529.63 941.57 -530.51 937.15 C-530.84 935.64 -531.17 934.14 -531.51 932.65 C-532.42 928.61 -533.24 924.57 -534.01 920.5 C-534.25 919.21 -534.25 919.21 -534.51 917.9 C-534.67 917.02 -534.84 916.15 -535.01 915.25 C-535.31 913.17 -535.31 913.17 -536.51 912.15 C-536.99 908.72 -537.38 905.3 -537.76 901.87 C-537.87 898.2 -537.87 898.2 -539.51 895.15 C-540.52 888.84 -540.61 882.51 -540.51 876.15 C-541.17 876.15 -541.83 876.15 -542.51 876.15 C-542.59 875.15 -542.59 875.15 -542.68 874.14 C-542.93 871.16 -543.19 868.19 -543.44 865.21 C-543.58 863.65 -543.58 863.65 -543.71 862.05 C-543.8 861.06 -543.88 860.07 -543.97 859.06 C-544.05 858.14 -544.13 857.22 -544.21 856.28 C-544.29 854.17 -544.29 854.17 -545.51 853.15 C-545.74 850.62 -545.93 848.11 -546.07 845.58 C-546.11 844.87 -546.16 844.16 -546.2 843.43 C-546.31 841.67 -546.41 839.91 -546.51 838.15 C-546.84 838.15 -547.17 838.15 -547.51 838.15 C-547.53 835.85 -547.55 833.56 -547.57 831.27 C-547.59 829.36 -547.59 829.36 -547.6 827.4 C-547.51 824.15 -547.51 824.15 -546.51 822.15 C-547.17 822.15 -547.83 822.15 -548.51 822.15 C-548.84 815.55 -549.17 808.95 -549.51 802.15 C-549.84 802.15 -550.17 802.15 -550.51 802.15 C-553.13 751.74 -552.82 701.31 -552.76 650.86 C-552.76 642.53 -552.76 634.2 -552.77 625.87 C-552.86 534.48 -552.86 534.48 -551.55 499.65 C-551.51 498.49 -551.47 497.34 -551.42 496.15 C-551.3 493.06 -551.17 489.96 -551.03 486.86 C-551 485.99 -550.96 485.11 -550.92 484.2 C-550.63 478.39 -550.63 478.39 -549.51 476.15 C-549.29 473.61 -549.13 471.09 -549.01 468.55 C-548.97 467.8 -548.93 467.05 -548.88 466.28 C-548.71 463.06 -548.55 459.85 -548.38 456.64 C-548.26 454.29 -548.13 451.95 -548.01 449.61 C-547.97 448.88 -547.94 448.15 -547.9 447.39 C-547.62 442.26 -547.62 442.26 -546.51 441.15 C-546.28 439.61 -546.11 438.07 -545.97 436.52 C-545.89 435.59 -545.8 434.65 -545.71 433.69 C-545.58 432.21 -545.58 432.21 -545.44 430.71 C-545.35 429.73 -545.26 428.75 -545.17 427.74 C-544.69 422.95 -544.69 422.95 -544.51 418.15 C-543.85 418.15 -543.19 418.15 -542.51 418.15 C-542.69 417.46 -542.87 416.78 -543.06 416.08 C-543.6 412.57 -543.19 409.71 -542.63 406.21 C-542.45 405.02 -542.27 403.84 -542.08 402.62 C-541.72 400.45 -541.36 398.28 -541 396.11 C-540.29 391.84 -539.65 387.55 -539.01 383.27 C-538.57 380.54 -538.05 377.85 -537.51 375.15 C-537.03 372.13 -536.56 369.11 -536.1 366.08 C-535.51 363.15 -535.51 363.15 -534.44 360.71 C-533.25 357.44 -533.49 354.61 -533.51 351.15 C-532.81 348.14 -532.81 348.14 -531.82 345.02 C-529.9 338.65 -528.28 332.25 -526.76 325.77 C-526.53 324.82 -526.31 323.88 -526.08 322.9 C-525.56 320.65 -525.03 318.4 -524.51 316.15 C-523.85 316.15 -523.19 316.15 -522.51 316.15 C-522.84 315.16 -523.17 314.17 -523.51 313.15 C-522.84 310.36 -522.11 307.69 -521.26 304.96 C-521.04 304.23 -520.82 303.5 -520.6 302.74 C-519.31 298.48 -517.85 294.3 -516.26 290.14 C-515.23 287.4 -514.27 284.63 -513.31 281.85 C-511.22 275.82 -509.13 269.86 -506.37 264.1 C-505.43 262.05 -505.43 262.05 -504.62 259.43 C-503.26 255.43 -501.61 251.62 -499.88 247.77 C-499.53 246.99 -499.19 246.21 -498.83 245.4 C-495.29 237.53 -491.43 229.83 -487.51 222.15 C-486.51 220.15 -485.5 218.15 -484.51 216.15 C-483.85 216.15 -483.19 216.15 -482.51 216.15 C-482.28 215.33 -482.06 214.52 -481.82 213.68 C-480.19 209.28 -477.92 205.55 -475.44 201.58 C-474.96 200.79 -474.47 200 -473.96 199.18 C-469.7 192.34 -465.17 185.72 -460.51 179.15 C-459.83 178.16 -459.16 177.18 -458.46 176.16 C-457.84 175.25 -457.21 174.34 -456.57 173.4 C-455.75 172.2 -455.75 172.2 -454.92 170.97 C-453.51 169.15 -453.51 169.15 -451.51 168.15 C-450.59 166.82 -449.73 165.46 -448.88 164.08 C-446.12 159.82 -442.98 156.49 -439.32 152.99 C-436.99 150.62 -435.33 147.92 -433.51 145.15 C-431.86 143.79 -430.19 142.45 -428.51 141.15 C-427.89 140.36 -427.27 139.58 -426.63 138.77 C-424.37 135.98 -421.92 133.91 -419.17 131.62 C-416.99 129.68 -415.31 127.43 -413.51 125.15 C-411.86 123.79 -410.19 122.46 -408.51 121.15 C-407.74 120.38 -406.98 119.62 -406.19 118.83 C-396.07 108.71 -396.07 108.71 -390.51 107.15 C-390.51 106.49 -390.51 105.83 -390.51 105.15 C-388.93 103.7 -388.93 103.7 -386.69 102.02 C-385.87 101.4 -385.04 100.77 -384.18 100.13 C-383.3 99.47 -382.42 98.82 -381.51 98.15 C-380.68 97.52 -379.84 96.9 -378.99 96.26 C-366.97 87.38 -354.57 79.38 -341.51 72.15 C-340.74 71.71 -339.98 71.27 -339.19 70.82 C-332.44 66.97 -325.45 63.58 -318.49 60.13 C-316.63 59.2 -314.77 58.27 -312.91 57.33 C-311.85 56.8 -310.79 56.26 -309.69 55.71 C-308.76 55.23 -307.83 54.76 -306.86 54.27 C-304.51 53.15 -304.51 53.15 -301.51 52.15 C-301.51 51.82 -301.51 51.49 -301.51 51.15 C-300.69 50.89 -299.87 50.63 -299.03 50.36 C-295.01 48.97 -291.11 47.36 -287.19 45.71 C-282.05 43.56 -276.93 41.49 -271.6 39.82 C-269.08 39.01 -266.61 38.08 -264.13 37.15 C-259.57 35.47 -254.99 34.1 -250.29 32.88 C-248.34 32.36 -246.38 31.82 -244.44 31.26 C-243.45 30.97 -242.46 30.69 -241.44 30.4 C-240.55 30.13 -239.65 29.87 -238.72 29.6 C-236.51 29.15 -236.51 29.15 -234.51 30.15 C-234.51 29.49 -234.51 28.83 -234.51 28.15 C-233.49 27.89 -232.48 27.64 -231.43 27.38 C-230.77 27.21 -230.11 27.05 -229.43 26.88 C-227.97 26.51 -226.5 26.14 -225.04 25.78 C-221.79 24.97 -218.54 24.15 -215.3 23.32 C-208.57 21.59 -201.8 20.16 -194.98 18.84 C-192.2 18.28 -189.45 17.68 -186.69 17.02 C-182.76 16.12 -178.85 15.77 -174.84 15.43 C-172.29 15.18 -172.29 15.18 -169.07 14.15 C-165.09 13.03 -161.36 12.74 -157.26 12.43 C-154.79 12.17 -152.53 11.75 -150.13 11.15 C-145.35 9.98 -140.6 9.74 -135.7 9.43 C-132.07 9.11 -128.62 8.41 -125.07 7.62 C-121.06 6.88 -117.03 6.65 -112.98 6.39 C-110.51 6.29 -110.51 6.29 -108.51 5.15 C-106.05 4.93 -103.62 4.77 -101.16 4.65 C-100.44 4.6 -99.71 4.56 -98.97 4.52 C-95.86 4.35 -92.75 4.18 -89.65 4.02 C-87.38 3.9 -85.12 3.77 -82.85 3.65 C-82.15 3.61 -81.44 3.57 -80.71 3.54 C-76.99 3.37 -76.99 3.37 -73.51 2.15 C-71 2 -68.51 1.91 -66 1.86 C-64.86 1.84 -64.86 1.84 -63.7 1.81 C-61.26 1.75 -58.82 1.7 -56.38 1.65 C-53.99 1.59 -51.6 1.54 -49.21 1.48 C-47.73 1.45 -46.24 1.41 -44.76 1.39 C-40 1.27 -35.28 0.99 -30.53 0.64 C-20.36 -0.03 -10.19 -0 0 0 Z M-73.51 3.15 C-73.51 3.48 -73.51 3.81 -73.51 4.15 C-71.86 4.15 -70.21 4.15 -68.51 4.15 C-68.51 3.82 -68.51 3.49 -68.51 3.15 C-70.16 3.15 -71.81 3.15 -73.51 3.15 Z M-108.51 6.15 C-104.51 7.15 -104.51 7.15 -104.51 7.15 Z M-532.51 351.15 C-531.51 353.15 -531.51 353.15 -531.51 353.15 Z M-538.51 383.15 C-537.51 385.15 -537.51 385.15 -537.51 385.15 Z M-541.51 403.15 C-540.51 405.15 -540.51 405.15 -540.51 405.15 Z M-546.51 442.15 C-545.51 445.15 -545.51 445.15 -545.51 445.15 Z M-547.51 457.15 C-546.51 460.15 -546.51 460.15 -546.51 460.15 Z M-549.51 478.15 C-548.51 482.15 -548.51 482.15 -548.51 482.15 Z " fill="#FA6904" transform="translate(552.50732421875,-0.145263671875)"/>
<path d="M0 0 C1.79 -0 1.79 -0 3.61 -0.01 C4.94 -0.01 6.28 -0 7.61 -0 C9.02 -0 10.42 -0 11.83 -0.01 C15.72 -0.01 19.6 -0.01 23.48 -0 C27.66 -0 31.85 -0.01 36.03 -0.01 C44.24 -0.01 52.44 -0.01 60.65 -0.01 C67.33 -0.01 74.01 -0.01 80.69 -0.01 C81.64 -0.01 82.59 -0.01 83.57 -0.01 C85.5 -0.01 87.43 -0.01 89.36 -0.01 C107.5 -0.01 125.63 -0.01 143.77 -0 C159.29 0 174.81 0 190.33 -0 C208.37 -0.01 226.4 -0.01 244.44 -0.01 C246.37 -0.01 248.3 -0.01 250.23 -0.01 C251.18 -0.01 252.13 -0.01 253.11 -0.01 C259.76 -0.01 266.41 -0.01 273.06 -0.01 C281.2 -0.01 289.34 -0.01 297.48 -0.01 C301.62 -0 305.76 -0 309.9 -0.01 C333.02 -0.02 356.09 0.18 379.12 2.38 C379.78 2.44 380.43 2.5 381.11 2.56 C400.73 4.44 420.59 7.22 439.43 13.13 C440.11 13.33 440.78 13.53 441.48 13.74 C457.87 18.66 474.19 25.03 487.43 36.13 C488.28 36.82 489.13 37.52 490 38.24 C519.4 63.51 530.61 104.03 535.43 141.13 C535.56 142.06 535.69 143 535.82 143.96 C537.77 158.8 538.82 173.67 539.5 188.62 C539.55 189.57 539.59 190.51 539.63 191.49 C540.84 218.81 540.76 246.14 540.77 273.48 C540.77 277.93 540.77 282.38 540.78 286.83 C540.8 301.6 540.81 316.36 540.8 331.13 C540.8 332.31 540.8 332.31 540.8 333.51 C540.8 334.3 540.8 335.09 540.8 335.9 C540.8 348.77 540.82 361.64 540.85 374.5 C540.88 387.8 540.89 401.1 540.89 414.4 C540.89 421.84 540.9 429.27 540.92 436.71 C540.94 443.66 540.94 450.61 540.92 457.56 C540.92 460.11 540.92 462.66 540.94 465.21 C540.95 468.68 540.94 472.15 540.93 475.62 C540.94 476.64 540.95 477.65 540.96 478.7 C540.89 485.43 540.89 485.43 538.69 488.75 C536.14 490.31 534.75 490.63 531.77 490.64 C530.84 490.65 529.91 490.67 528.95 490.68 C527.93 490.67 526.92 490.67 525.87 490.66 C524.26 490.67 524.26 490.67 522.61 490.69 C519.05 490.71 515.5 490.7 511.94 490.69 C509.47 490.7 506.99 490.7 504.52 490.71 C499.34 490.72 494.16 490.72 488.98 490.7 C482.34 490.69 475.7 490.71 469.05 490.74 C463.95 490.77 458.85 490.76 453.74 490.76 C451.29 490.76 448.85 490.76 446.4 490.78 C442.97 490.79 439.55 490.78 436.13 490.76 C435.11 490.77 434.1 490.78 433.05 490.79 C428.32 490.73 426.16 490.69 422.33 487.71 C419.81 484.28 419.31 482.68 419.3 478.49 C419.29 477.02 419.29 477.02 419.29 475.52 C419.29 474.43 419.29 473.34 419.29 472.22 C419.28 471.08 419.28 469.93 419.28 468.74 C419.27 465.54 419.26 462.35 419.26 459.15 C419.26 455.7 419.25 452.25 419.24 448.81 C419.22 442.83 419.21 436.85 419.2 430.87 C419.19 422.2 419.17 413.54 419.14 404.87 C419.11 390.79 419.07 376.71 419.04 362.63 C419.04 361.78 419.04 360.94 419.03 360.07 C419.01 348.13 418.98 336.19 418.96 324.25 C418.96 323.41 418.96 322.58 418.96 321.71 C418.95 320.46 418.95 320.46 418.95 319.17 C418.92 305.16 418.89 291.15 418.85 277.14 C418.82 268.51 418.81 259.88 418.8 251.25 C418.79 245.32 418.77 239.39 418.75 233.46 C418.74 230.04 418.74 226.63 418.74 223.22 C418.73 189.4 416.98 152.14 393.83 125.26 C368.99 101.57 325.24 102.97 293.29 102.98 C291.35 102.98 289.4 102.97 287.46 102.97 C282.24 102.96 277.01 102.96 271.79 102.96 C268.52 102.96 265.26 102.96 261.99 102.95 C250.58 102.94 239.17 102.94 227.75 102.94 C217.13 102.94 206.51 102.93 195.88 102.91 C186.73 102.9 177.59 102.9 168.44 102.9 C162.99 102.9 157.53 102.89 152.08 102.88 C146.97 102.87 141.85 102.87 136.74 102.88 C134.86 102.88 132.98 102.88 131.11 102.87 C128.55 102.87 125.99 102.87 123.43 102.88 C122.69 102.87 121.94 102.87 121.18 102.86 C117.18 102.89 113.92 103.1 110.43 105.13 C108.17 108.53 108.18 111.48 108.18 115.49 C108.17 117.47 108.17 117.47 108.17 119.49 C108.17 120.96 108.18 122.43 108.18 123.89 C108.18 125.45 108.18 127 108.17 128.56 C108.16 132.84 108.17 137.12 108.17 141.4 C108.18 146.02 108.17 150.63 108.17 155.25 C108.16 163.25 108.16 171.25 108.16 179.25 C108.16 190.81 108.15 202.38 108.13 213.95 C108.11 232.73 108.09 251.5 108.07 270.28 C108.07 271.97 108.07 271.97 108.07 273.69 C108.06 289.65 108.06 305.61 108.05 321.57 C108.05 322.69 108.05 323.81 108.05 324.97 C108.05 326.09 108.05 327.22 108.05 328.37 C108.05 347.08 108.03 365.78 108 384.49 C107.98 396.03 107.97 407.57 107.98 419.12 C107.99 427.02 107.98 434.93 107.96 442.84 C107.95 447.4 107.95 451.97 107.96 456.53 C107.97 460.71 107.97 464.88 107.95 469.06 C107.94 470.57 107.94 472.09 107.95 473.6 C107.97 475.65 107.95 477.71 107.94 479.76 C107.93 480.9 107.93 482.04 107.93 483.22 C107.32 486.77 106.25 487.94 103.43 490.13 C101.22 490.63 101.22 490.63 98.77 490.63 C97.37 490.65 97.37 490.65 95.95 490.67 C94.93 490.66 93.92 490.65 92.87 490.64 C91.26 490.65 91.26 490.65 89.61 490.66 C86.05 490.68 82.5 490.67 78.94 490.66 C76.47 490.66 73.99 490.66 71.52 490.67 C66.34 490.67 61.16 490.67 55.98 490.65 C49.34 490.62 42.7 490.64 36.05 490.66 C30.95 490.68 25.85 490.67 20.74 490.66 C18.29 490.66 15.85 490.66 13.4 490.67 C9.97 490.68 6.55 490.67 3.13 490.64 C1.61 490.66 1.61 490.66 0.05 490.67 C-0.88 490.66 -1.82 490.65 -2.78 490.63 C-3.59 490.63 -4.4 490.63 -5.23 490.63 C-8.62 489.9 -10.15 488.62 -12.57 486.13 C-13.07 483.27 -13.24 481.01 -13.2 478.15 C-13.2 477.34 -13.21 476.52 -13.22 475.69 C-13.24 472.94 -13.22 470.2 -13.2 467.46 C-13.21 465.48 -13.22 463.5 -13.23 461.52 C-13.25 456.06 -13.24 450.61 -13.22 445.15 C-13.21 439.28 -13.23 433.4 -13.24 427.52 C-13.26 416.01 -13.26 404.49 -13.24 392.97 C-13.23 383.61 -13.23 374.25 -13.24 364.89 C-13.24 364.23 -13.24 363.56 -13.24 362.88 C-13.24 360.18 -13.24 357.49 -13.24 354.79 C-13.26 329.48 -13.24 304.16 -13.22 278.85 C-13.19 256.35 -13.19 233.86 -13.22 211.36 C-13.25 186.1 -13.26 160.83 -13.24 135.57 C-13.24 132.88 -13.24 130.18 -13.24 127.49 C-13.24 126.83 -13.24 126.17 -13.23 125.48 C-13.23 115.46 -13.24 105.45 -13.25 95.43 C-13.26 84.04 -13.26 72.64 -13.23 61.25 C-13.22 55.44 -13.21 49.62 -13.23 43.81 C-13.25 38.49 -13.24 33.17 -13.21 27.85 C-13.2 25.92 -13.21 23.99 -13.22 22.07 C-13.23 19.45 -13.22 16.84 -13.2 14.23 C-13.21 13.47 -13.22 12.71 -13.23 11.94 C-13.16 7.97 -12.71 6.29 -10.15 3.18 C-6.44 0.23 -4.69 0 0 0 Z " fill="#FDFDFD" transform="translate(265.56704902648926,393.87415885925293)"/>
<path d="M0 0 C0.9 -0.01 1.81 -0.02 2.74 -0.03 C3.73 -0.04 4.73 -0.04 5.75 -0.05 C6.8 -0.06 7.85 -0.07 8.92 -0.08 C12.39 -0.11 15.87 -0.13 19.34 -0.15 C20.52 -0.15 21.7 -0.16 22.92 -0.17 C29.19 -0.2 35.45 -0.22 41.71 -0.24 C46.9 -0.26 52.09 -0.3 57.28 -0.35 C63.54 -0.41 69.8 -0.44 76.06 -0.45 C78.45 -0.46 80.84 -0.48 83.22 -0.5 C86.56 -0.54 89.9 -0.54 93.24 -0.54 C94.23 -0.56 95.22 -0.58 96.24 -0.6 C97.15 -0.59 98.06 -0.58 99.01 -0.57 C100.19 -0.57 100.19 -0.57 101.4 -0.58 C104.93 0.56 106.85 3.06 108.69 6.16 C109.17 9.1 109.37 11.45 109.32 14.38 C109.33 15.2 109.33 16.02 109.34 16.86 C109.36 19.6 109.34 22.34 109.32 25.08 C109.33 27.06 109.33 29.04 109.34 31.02 C109.36 36.48 109.35 41.93 109.33 47.38 C109.32 53.26 109.33 59.13 109.35 65.01 C109.36 76.53 109.36 88.04 109.34 99.56 C109.32 108.91 109.32 118.27 109.32 127.62 C109.32 128.29 109.32 128.95 109.32 129.63 C109.32 132.33 109.33 135.03 109.33 137.73 C109.34 163.03 109.32 188.33 109.29 213.64 C109.26 236.13 109.25 258.62 109.27 281.11 C109.27 286.87 109.28 292.63 109.28 298.39 C109.28 299.45 109.28 299.45 109.28 300.54 C109.29 319.32 109.29 338.11 109.27 356.89 C109.27 358.91 109.27 360.93 109.27 362.95 C109.27 364.29 109.27 365.64 109.27 366.98 C109.26 376.99 109.26 387.01 109.27 397.03 C109.28 408.41 109.27 419.8 109.24 431.19 C109.23 437 109.23 442.81 109.24 448.62 C109.25 453.94 109.24 459.26 109.22 464.57 C109.21 466.5 109.21 468.43 109.22 470.36 C109.23 472.97 109.22 475.58 109.2 478.19 C109.21 478.95 109.22 479.7 109.23 480.49 C109.18 483.97 108.95 485.83 106.8 488.63 C104.32 490.43 103.08 490.66 100.03 490.67 C98.63 490.69 98.63 490.69 97.21 490.7 C96.19 490.69 95.18 490.69 94.13 490.68 C92.52 490.69 92.52 490.69 90.87 490.7 C87.31 490.72 83.76 490.71 80.2 490.69 C77.73 490.69 75.26 490.7 72.78 490.7 C67.6 490.71 62.42 490.7 57.24 490.68 C50.6 490.66 43.96 490.67 37.31 490.7 C32.21 490.71 27.11 490.71 22 490.7 C19.55 490.69 17.11 490.7 14.66 490.71 C11.23 490.72 7.81 490.7 4.39 490.68 C2.87 490.69 2.87 490.69 1.31 490.7 C0.38 490.69 -0.56 490.68 -1.52 490.67 C-2.33 490.67 -3.14 490.67 -3.97 490.66 C-7.36 489.93 -8.89 488.65 -11.31 486.16 C-11.81 483.31 -11.98 481.04 -11.94 478.19 C-11.94 477.37 -11.95 476.56 -11.96 475.72 C-11.98 472.98 -11.96 470.23 -11.94 467.49 C-11.95 465.51 -11.96 463.53 -11.97 461.55 C-11.99 456.1 -11.98 450.64 -11.96 445.19 C-11.95 439.31 -11.97 433.44 -11.98 427.56 C-12 416.04 -12 404.52 -11.98 393 C-11.97 383.65 -11.97 374.29 -11.98 364.93 C-11.98 364.26 -11.98 363.6 -11.98 362.91 C-11.98 360.22 -11.98 357.52 -11.98 354.82 C-12 329.51 -11.98 304.2 -11.96 278.89 C-11.93 256.39 -11.93 233.89 -11.96 211.4 C-11.99 186.13 -12 160.87 -11.98 135.6 C-11.98 132.91 -11.98 130.22 -11.98 127.53 C-11.98 126.86 -11.98 126.2 -11.97 125.52 C-11.97 115.5 -11.98 105.48 -11.99 95.46 C-12 84.07 -12 72.68 -11.97 61.29 C-11.96 55.47 -11.95 49.66 -11.97 43.84 C-11.99 38.52 -11.98 33.21 -11.95 27.89 C-11.94 25.96 -11.95 24.03 -11.96 22.1 C-11.97 19.49 -11.96 16.87 -11.94 14.26 C-11.95 13.51 -11.96 12.75 -11.97 11.97 C-11.9 8 -11.45 6.33 -8.89 3.22 C-5.61 0.6 -4.1 0.04 0 0 Z " fill="#FDFDFD" transform="translate(911.3069610595703,393.83937072753906)"/>
<path d="M0 0 C1.1 -0.01 2.19 -0.01 3.32 -0.02 C6.94 -0.04 10.57 -0.04 14.19 -0.03 C16.71 -0.03 19.22 -0.04 21.74 -0.05 C27.01 -0.05 32.29 -0.05 37.56 -0.04 C43.65 -0.03 49.75 -0.04 55.84 -0.07 C61.71 -0.1 67.57 -0.1 73.44 -0.09 C75.94 -0.09 78.43 -0.1 80.93 -0.11 C84.41 -0.13 87.89 -0.11 91.38 -0.1 C92.93 -0.11 92.93 -0.11 94.51 -0.13 C101.5 -0.05 101.5 -0.05 104.73 2.31 C106.88 5.55 107.25 7.32 107.25 11.18 C107.26 12.2 107.26 13.21 107.27 14.26 C107.27 15.38 107.26 16.51 107.26 17.67 C107.27 18.85 107.27 20.04 107.27 21.26 C107.28 24.57 107.28 27.87 107.28 31.18 C107.28 34.74 107.29 38.3 107.3 41.86 C107.31 49.65 107.32 57.45 107.32 65.24 C107.33 70.1 107.33 74.96 107.33 79.82 C107.35 93.28 107.36 106.73 107.36 120.19 C107.36 121.48 107.36 121.48 107.36 122.8 C107.36 124.09 107.36 124.09 107.36 125.41 C107.36 127.16 107.36 128.91 107.36 130.66 C107.36 131.53 107.36 132.4 107.36 133.29 C107.37 147.37 107.39 161.44 107.41 175.51 C107.43 189.95 107.44 204.38 107.45 218.82 C107.45 226.93 107.45 235.04 107.47 243.15 C107.49 250.06 107.49 256.96 107.48 263.86 C107.48 267.39 107.48 270.91 107.49 274.44 C107.51 278.26 107.5 282.07 107.49 285.89 C107.5 287.57 107.5 287.57 107.51 289.28 C107.5 290.81 107.5 290.81 107.49 292.37 C107.5 293.25 107.5 294.14 107.5 295.04 C107.04 297.92 106.1 299.3 104.12 301.4 C101.94 301.91 101.94 301.91 99.35 301.92 C98.37 301.93 97.39 301.94 96.38 301.96 C94.77 301.95 94.77 301.95 93.12 301.94 C91.99 301.95 90.85 301.95 89.69 301.96 C85.93 301.99 82.17 301.98 78.41 301.97 C75.8 301.98 73.2 301.98 70.59 301.99 C65.12 302 59.65 302 54.18 301.98 C47.86 301.96 41.55 301.98 35.23 302.01 C29.15 302.04 23.07 302.04 16.99 302.03 C14.4 302.03 11.81 302.04 9.23 302.05 C5.61 302.07 2 302.06 -1.62 302.04 C-2.69 302.05 -3.76 302.06 -4.86 302.07 C-12.13 301.98 -12.13 301.98 -16.02 298.99 C-18.5 295.53 -19 293.91 -19.01 289.72 C-19.01 288.73 -19.02 287.74 -19.02 286.71 C-19.02 285.62 -19.02 284.52 -19.02 283.38 C-19.02 282.22 -19.02 281.06 -19.03 279.87 C-19.03 276.63 -19.04 273.4 -19.04 270.17 C-19.04 266.68 -19.05 263.2 -19.05 259.71 C-19.07 252.09 -19.07 244.47 -19.08 236.85 C-19.08 232.09 -19.08 227.33 -19.09 222.58 C-19.1 209.41 -19.11 196.24 -19.11 183.07 C-19.11 182.23 -19.12 181.39 -19.12 180.52 C-19.12 179.25 -19.12 179.25 -19.12 177.96 C-19.12 176.24 -19.12 174.53 -19.12 172.82 C-19.12 171.97 -19.12 171.12 -19.12 170.24 C-19.12 156.48 -19.14 142.71 -19.16 128.94 C-19.19 114.82 -19.2 100.69 -19.2 86.56 C-19.2 78.63 -19.21 70.69 -19.22 62.76 C-19.24 56 -19.25 49.24 -19.24 42.49 C-19.23 39.04 -19.23 35.59 -19.25 32.14 C-19.26 28.41 -19.26 24.67 -19.24 20.93 C-19.25 19.84 -19.26 18.75 -19.27 17.63 C-19.23 12.14 -19.03 8.12 -15.88 3.4 C-11.38 -0.74 -5.77 -0.03 0 0 Z " fill="#FDFDFD" transform="translate(484.877197265625,582.595947265625)"/>
<path d="M0 0 C0.33 0 0.66 0 1 0 C1 5.61 1 11.22 1 17 C0.67 17 0.34 17 0 17 C0 11.39 0 5.78 0 0 Z " fill="#000000" transform="translate(1278,751)"/>
<path d="M0 0 C0.33 0 0.66 0 1 0 C1 5.28 1 10.56 1 16 C0.67 16 0.34 16 0 16 C0 10.72 0 5.44 0 0 Z " fill="#000000" transform="translate(1278,513)"/>
<path d="M0 0 C0.33 0 0.66 0 1 0 C1 2.97 1 5.94 1 9 C0.67 9 0.34 9 0 9 C0 6.03 0 3.06 0 0 Z " fill="#000000" transform="translate(1275,807)"/>
<path d="M0 0 C0.33 0 0.66 0 1 0 C1 2.97 1 5.94 1 9 C0.67 9 0.34 9 0 9 C0 6.03 0 3.06 0 0 Z " fill="#000000" transform="translate(1275,466)"/>
<path d="M0 0 C2.64 0 5.28 0 8 0 C8 0.33 8 0.66 8 1 C5.36 1 2.72 1 0 1 C0 0.67 0 0.34 0 0 Z " fill="#000000" transform="translate(807,1275)"/>
<path d="M0 0 C2.64 0 5.28 0 8 0 C8 0.33 8 0.66 8 1 C5.36 1 2.72 1 0 1 C0 0.67 0 0.34 0 0 Z " fill="#000000" transform="translate(465,1275)"/>
<path d="M0 0 C0.33 0 0.66 0 1 0 C1 1.98 1 3.96 1 6 C0.67 6 0.34 6 0 6 C0 4.02 0 2.04 0 0 Z " fill="#000000" transform="translate(1272,434)"/>
<path d="M0 0 C1.65 0 3.3 0 5 0 C5 0.33 5 0.66 5 1 C3.35 1 1.7 1 0 1 C0 0.67 0 0.34 0 0 Z " fill="#000000" transform="translate(842,1272)"/>
<path d="M0 0 C1.65 0 3.3 0 5 0 C5 0.33 5 0.66 5 1 C3.35 1 1.7 1 0 1 C0 0.67 0 0.34 0 0 Z " fill="#000000" transform="translate(433,1272)"/>
<path d="M0 0 C0.33 0 0.66 0 1 0 C1 1.65 1 3.3 1 5 C0.67 5 0.34 5 0 5 C0 3.35 0 1.7 0 0 Z " fill="#000000" transform="translate(1272,842)"/>
<path d="M0 0 C3 1 3 1 3 1 Z " fill="#000000" transform="translate(868,1269)"/>
<path d="M0 0 C3 1 3 1 3 1 Z " fill="#000000" transform="translate(409,1269)"/>
<path d="" fill="#000000" transform="translate(0,0)"/>
<path d="" fill="#000000" transform="translate(0,0)"/>
<path d="M0 0 C2 1 2 1 2 1 Z " fill="#000000" transform="translate(932,1258)"/>
<path d="M0 0 C2 1 2 1 2 1 Z " fill="#000000" transform="translate(346,1258)"/>
<path d="M0 0 C2 1 2 1 2 1 Z " fill="#000000" transform="translate(945,1255)"/>
<path d="M0 0 C2 1 2 1 2 1 Z " fill="#000000" transform="translate(333,1255)"/>
<path d="" fill="#000000" transform="translate(0,0)"/>
<path d="" fill="#000000" transform="translate(0,0)"/>
<path d="" fill="#000000" transform="translate(0,0)"/>
<path d="" fill="#000000" transform="translate(0,0)"/>
<path d="" fill="#000000" transform="translate(0,0)"/>
<path d="" fill="#000000" transform="translate(0,0)"/>
<path d="" fill="#000000" transform="translate(0,0)"/>
<path d="" fill="#000000" transform="translate(0,0)"/>
<path d="" fill="#000000" transform="translate(0,0)"/>
<path d="" fill="#000000" transform="translate(0,0)"/>
<path d="" fill="#FA6904" transform="translate(0,0)"/>
<path d="" fill="#000000" transform="translate(0,0)"/>
<path d="" fill="#000000" transform="translate(0,0)"/>
<path d="" fill="#000000" transform="translate(0,0)"/>
<path d="" fill="#FA6904" transform="translate(0,0)"/>
<path d="" fill="#FA6904" transform="translate(0,0)"/>
<path d="" fill="#FA6904" transform="translate(0,0)"/>
<path d="" fill="#FA6904" transform="translate(0,0)"/>
<path d="" fill="#FA6904" transform="translate(0,0)"/>
</svg>
